<svg id="图层_1" data-name="图层 1" xmlns="http://www.w3.org/2000/svg" viewBox="0 0 76 76"><defs><style>.cls-1{fill:#f2f2f2;}.cls-2{fill:#fff;}.cls-3{fill:#194f82;}.cls-4{fill:#ffc10d;}.cls-5{fill:#56ace0;}</style></defs><title>fac-icon2</title><g id="首页"><g id="_1首页" data-name="1首页"><g id="Section-2-导航公告"><g id="menu"><g id="菜单"><g id="Categories-1"><g id="_2" data-name="2"><g id="Group-5"><circle id="Oval-2-Copy" class="cls-1" cx="38" cy="38" r="38"/><g id="icon-2"><path id="Shape" class="cls-2" d="M17.59,50.12v3.93a1.3,1.3,0,0,0,1.3,1.3H57.73a1.3,1.3,0,0,0,1.3-1.3V50.12Z"/><path id="Shape-2" data-name="Shape" class="cls-3" d="M60.33,47.53H58.07V21.89A3.89,3.89,0,0,0,54.19,18H22.45a3.89,3.89,0,0,0-3.88,3.88V47.53H16.3a1.3,1.3,0,0,0-1.3,1.3v5.23a3.89,3.89,0,0,0,3.88,3.88H57.73a3.89,3.89,0,0,0,3.88-3.88V48.83A1.28,1.28,0,0,0,60.33,47.53ZM59,54a1.3,1.3,0,0,1-1.3,1.3H18.89a1.3,1.3,0,0,1-1.3-1.3V50.12H59V54ZM21.15,21.89a1.3,1.3,0,0,1,1.3-1.3H54.19a1.3,1.3,0,0,1,1.3,1.3V47.53H21.15Z"/><path id="Shape-3" data-name="Shape" class="cls-4" d="M17.59,54a1.3,1.3,0,0,0,1.3,1.3H46.67v-1.7a1.3,1.3,0,0,1,2.59,0v1.7H52v-1.7a1.3,1.3,0,0,1,2.59,0v1.7h3.11A1.3,1.3,0,0,0,59,54V50.12H17.59Z"/><path id="Shape-4" data-name="Shape" class="cls-2" d="M55.48,21.89a1.3,1.3,0,0,0-1.3-1.3H22.45a1.3,1.3,0,0,0-1.3,1.3V47.53H55.48V21.89Z"/><rect id="Rectangle-path" class="cls-5" x="23.74" y="23.17" width="29.16" height="21.75"/><path id="Shape-5" data-name="Shape" class="cls-2" d="M34.08,29.33a.94.94,0,1,0,.94.94A.94.94,0,0,0,34.08,29.33Z"/><path id="Shape-6" data-name="Shape" class="cls-2" d="M41.35,36.84a.94.94,0,1,0,.94.94A1,1,0,0,0,41.35,36.84Z"/><path id="Shape-7" data-name="Shape" class="cls-2" d="M29,38.34a.94.94,0,1,0,.94.94A.94.94,0,0,0,29,38.34Z"/><path id="Shape-8" data-name="Shape" class="cls-2" d="M47.65,27.88a.94.94,0,1,0,.94.94A.94.94,0,0,0,47.65,27.88Z"/><path id="Shape-9" data-name="Shape" class="cls-3" d="M47.65,25.28a3.53,3.53,0,0,0-3.52,3.52,3.45,3.45,0,0,0,.55,1.89L42,34.32a3.48,3.48,0,0,0-.7-.08,3.59,3.59,0,0,0-1.35.27L37.28,31.7a3.52,3.52,0,1,0-5.86.85l-1.89,3.24a3,3,0,0,0-.53,0,3.53,3.53,0,1,0,2.77,1.35l2-3.34.37,0a3.59,3.59,0,0,0,1.35-.27l2.72,2.81a3.52,3.52,0,1,0,6.06-.6l2.55-3.51a3.3,3.3,0,0,0,.88.11,3.51,3.51,0,1,0,0-7ZM29,40.22a.94.94,0,1,1,.94-.94A.94.94,0,0,1,29,40.22Zm5.1-9a.94.94,0,1,1,.94-.94A.94.94,0,0,1,34.08,31.2Zm7.28,7.51a.94.94,0,1,1,.94-.94A1,1,0,0,1,41.35,38.71Zm6.29-9a.94.94,0,1,1,.94-.94A.94.94,0,0,1,47.65,29.75Z"/></g></g></g></g></g></g></g></g></g></svg>