<?xml version="1.0" encoding="UTF-8"?>
<svg width="70px" height="70px" viewBox="0 0 70 70" version="1.1" xmlns="http://www.w3.org/2000/svg" xmlns:xlink="http://www.w3.org/1999/xlink">
    <!-- Generator: Sketch 52.1 (67048) - http://www.bohemiancoding.com/sketch -->
    <title>index-fun-4-fc</title>
    <desc>Created with Sketch.</desc>
    <g id="首页" stroke="none" stroke-width="1" fill="none" fill-rule="evenodd">
        <g id="#-1首页-建议底部" transform="translate(-610.000000, -495.000000)">
            <g id="Section-2-导航公告" transform="translate(0.000000, 467.000000)">
                <g id="menu">
                    <g id="菜单" transform="translate(0.000000, 11.000000)">
                        <g id="Group-14">
                            <g id="line1">
                                <g id="Categories-1" transform="translate(45.000000, 17.000000)">
                                    <g id="4" transform="translate(540.000000, 0.000000)">
                                        <g id="index-fun-4-fc" transform="translate(25.000000, 0.000000)">
                                            <circle id="Oval-2-Copy-3" fill="#FFFFFF" opacity="0.01" cx="35" cy="35" r="35"></circle>
                                            <g id="icon-4" transform="translate(18.000000, 16.000000)" fill-rule="nonzero">
                                                <g id="Group" transform="translate(16.655761, 0.000000)">
                                                    <path d="M10.7873069,7.52992736 C12.8570016,7.52992736 14.5492605,5.83757723 14.5492605,3.76797368 C14.5492605,1.69837013 12.8570016,0.00592878938 10.7873069,0.00592878938 C8.71761209,0.00592878938 7.02535318,1.69827891 7.02535318,3.76788247 C7.02526196,5.84350602 8.70584572,7.52992736 10.7873069,7.52992736 Z M10.7873069,1.99307656 C11.7661044,1.99307656 12.562204,2.78908495 12.562204,3.76797368 C12.562204,4.74686241 11.7661956,5.54287079 10.7873069,5.54287079 C9.80841812,5.54287079 9.01240974,4.74686241 9.01240974,3.76797368 C9.01240974,2.78908495 9.80850933,1.99307656 10.7873069,1.99307656 Z" id="Shape" fill="#194F82"></path>
                                                    <path d="M10.7873069,9.21625748 C7.79773761,9.21625748 5.36839336,11.6456017 5.36839336,14.635171 L5.36839336,16.6105524 C4.20680671,16.9643643 2.80341665,17.2297004 1.11699532,17.3063186 C0.568627909,17.3299426 0.144035377,17.7898342 0.167659323,18.3441304 C0.214816001,18.8984266 0.627550954,19.2934664 1.2054711,19.2934664 C2.80341665,19.2226858 4.17141639,18.9927399 5.36839336,18.6743184 L5.36839336,22.6544515 C5.36839336,23.2028189 5.81058984,23.6509442 6.36488604,23.6509442 L7.88621339,23.6509442 L7.88621339,34.8131215 C7.88621339,35.3614889 8.32850108,35.8096142 8.88270607,35.8096142 L12.6919076,35.8096142 C13.240275,35.8096142 13.6884003,35.3674177 13.6884003,34.8131215 L13.6884003,23.6510354 L15.2097277,23.6510354 C15.7580951,23.6510354 16.2062203,23.2088389 16.2062203,22.6545427 L16.2062203,14.6470285 C16.2062203,11.6515305 13.7768761,9.21625748 10.7873069,9.21625748 Z M11.6953237,33.8225576 L9.86743238,33.8225576 L9.86743238,23.6510354 L11.6953237,23.6510354 L11.6953237,33.8225576 Z M14.2250014,21.6638876 L14.2190726,21.6638876 L7.35544993,21.6638876 L7.35544993,17.9962473 C10.2565434,16.7756464 11.5125346,15.1423105 11.5891528,15.0361396 C11.9135032,14.5939431 11.8190986,13.974795 11.3769022,13.6504447 C10.9347057,13.3260943 10.3155576,13.4263364 9.99120726,13.8626953 C9.97944089,13.8863193 9.20696524,14.9005071 7.36137871,15.8203816 L7.36137871,14.635171 C7.36137871,12.7482653 8.90040122,11.2034053 10.7931444,11.2034053 C12.6800501,11.2034053 14.2249101,12.7424278 14.2249101,14.635171 L14.2249101,21.6638876 L14.2250014,21.6638876 Z" id="Shape" fill="#194F82"></path>
                                                    <path d="M10.7873069,11.209334 C8.88863486,11.209334 7.35554114,12.7483566 7.35554114,14.6410998 L7.35554114,15.8263104 C9.20112766,14.8946695 9.96767452,13.8804817 9.98536968,13.8686241 C10.3097201,13.4264276 10.9287769,13.3320231 11.3710646,13.6563734 C11.8133523,13.9807238 11.9076656,14.5997807 11.5833152,15.0420683 C11.506697,15.1482393 10.2566346,16.7815751 7.34961235,18.0021761 L7.34961235,21.6698164 L14.213235,21.6698164 L14.213235,14.6529573 C14.2190726,12.7483566 12.6742125,11.209334 10.7873069,11.209334 Z" id="Shape" fill="#56ACE0"></path>
                                                    <path d="M10.7873069,5.54277958 C11.7661044,5.54277958 12.562204,4.7467712 12.562204,3.76788247 C12.562204,2.78899373 11.7661956,1.99298535 10.7873069,1.99298535 C9.80841812,1.99298535 9.01240974,2.78899373 9.01240974,3.76788247 C9.01240974,4.7467712 9.80850933,5.54277958 10.7873069,5.54277958 Z" id="Shape" fill="#E7BA6D"></path>
                                                    <polygon id="Rectangle-path" fill="#56ACE0" points="9.87919874 23.6510354 11.7070901 23.6510354 11.7070901 33.8225576 9.87919874 33.8225576"></polygon>
                                                </g>
                                                <g id="Group" transform="translate(8.945590, 18.000000) scale(-1, 1) translate(-8.945590, -18.000000) translate(0.675320, 0.000000)">
                                                    <path d="M10.7873069,7.52992736 C12.8570016,7.52992736 14.5492605,5.83757723 14.5492605,3.76797368 C14.5492605,1.69837013 12.8570016,0.00592878938 10.7873069,0.00592878938 C8.71761209,0.00592878938 7.02535318,1.69827891 7.02535318,3.76788247 C7.02526196,5.84350602 8.70584572,7.52992736 10.7873069,7.52992736 Z M10.7873069,1.99307656 C11.7661044,1.99307656 12.562204,2.78908495 12.562204,3.76797368 C12.562204,4.74686241 11.7661956,5.54287079 10.7873069,5.54287079 C9.80841812,5.54287079 9.01240974,4.74686241 9.01240974,3.76797368 C9.01240974,2.78908495 9.80850933,1.99307656 10.7873069,1.99307656 Z" id="Shape" fill="#194F82"></path>
                                                    <path d="M10.7873069,9.21625748 C7.79773761,9.21625748 5.36839336,11.6456017 5.36839336,14.635171 L5.36839336,16.6105524 C4.20680671,16.9643643 2.80341665,17.2297004 1.11699532,17.3063186 C0.568627909,17.3299426 0.144035377,17.7898342 0.167659323,18.3441304 C0.214816001,18.8984266 0.627550954,19.2934664 1.2054711,19.2934664 C2.80341665,19.2226858 4.17141639,18.9927399 5.36839336,18.6743184 L5.36839336,22.6544515 C5.36839336,23.2028189 5.81058984,23.6509442 6.36488604,23.6509442 L7.88621339,23.6509442 L7.88621339,34.8131215 C7.88621339,35.3614889 8.32850108,35.8096142 8.88270607,35.8096142 L12.6919076,35.8096142 C13.240275,35.8096142 13.6884003,35.3674177 13.6884003,34.8131215 L13.6884003,23.6510354 L15.2097277,23.6510354 C15.7580951,23.6510354 16.2062203,23.2088389 16.2062203,22.6545427 L16.2062203,14.6470285 C16.2062203,11.6515305 13.7768761,9.21625748 10.7873069,9.21625748 Z M11.6953237,33.8225576 L9.86743238,33.8225576 L9.86743238,23.6510354 L11.6953237,23.6510354 L11.6953237,33.8225576 Z M14.2250014,21.6638876 L14.2190726,21.6638876 L7.35544993,21.6638876 L7.35544993,17.9962473 C10.2565434,16.7756464 11.5125346,15.1423105 11.5891528,15.0361396 C11.9135032,14.5939431 11.8190986,13.974795 11.3769022,13.6504447 C10.9347057,13.3260943 10.3155576,13.4263364 9.99120726,13.8626953 C9.97944089,13.8863193 9.20696524,14.9005071 7.36137871,15.8203816 L7.36137871,14.635171 C7.36137871,12.7482653 8.90040122,11.2034053 10.7931444,11.2034053 C12.6800501,11.2034053 14.2249101,12.7424278 14.2249101,14.635171 L14.2249101,21.6638876 L14.2250014,21.6638876 Z" id="Shape" fill="#194F82"></path>
                                                    <path d="M10.7873069,11.209334 C8.88863486,11.209334 7.35554114,12.7483566 7.35554114,14.6410998 L7.35554114,15.8263104 C9.20112766,14.8946695 9.96767452,13.8804817 9.98536968,13.8686241 C10.3097201,13.4264276 10.9287769,13.3320231 11.3710646,13.6563734 C11.8133523,13.9807238 11.9076656,14.5997807 11.5833152,15.0420683 C11.506697,15.1482393 10.2566346,16.7815751 7.34961235,18.0021761 L7.34961235,21.6698164 L14.213235,21.6698164 L14.213235,14.6529573 C14.2190726,12.7483566 12.6742125,11.209334 10.7873069,11.209334 Z" id="Shape" fill="#56ACE0"></path>
                                                    <path d="M10.7873069,5.54277958 C11.7661044,5.54277958 12.562204,4.7467712 12.562204,3.76788247 C12.562204,2.78899373 11.7661956,1.99298535 10.7873069,1.99298535 C9.80841812,1.99298535 9.01240974,2.78899373 9.01240974,3.76788247 C9.01240974,4.7467712 9.80850933,5.54277958 10.7873069,5.54277958 Z" id="Shape" fill="#E7BA6D"></path>
                                                    <polygon id="Rectangle-path" fill="#56ACE0" points="9.87919874 23.6510354 11.7070901 23.6510354 11.7070901 33.8225576 9.87919874 33.8225576"></polygon>
                                                </g>
                                            </g>
                                        </g>
                                    </g>
                                </g>
                            </g>
                        </g>
                    </g>
                </g>
            </g>
        </g>
    </g>
</svg>