<?xml version="1.0" encoding="UTF-8"?>
<svg width="70px" height="70px" viewBox="0 0 70 70" version="1.1" xmlns="http://www.w3.org/2000/svg" xmlns:xlink="http://www.w3.org/1999/xlink">
    <!-- Generator: Sketch 52.1 (67048) - http://www.bohemiancoding.com/sketch -->
    <title>index-fun-1-bj</title>
    <desc>Created with Sketch.</desc>
    <g id="首页" stroke="none" stroke-width="1" fill="none" fill-rule="evenodd">
        <g id="#-1首页-建议底部" transform="translate(-70.000000, -495.000000)">
            <g id="Section-2-导航公告" transform="translate(0.000000, 467.000000)">
                <g id="menu">
                    <g id="菜单" transform="translate(0.000000, 11.000000)">
                        <g id="Group-14">
                            <g id="line1">
                                <g id="Categories-1" transform="translate(45.000000, 17.000000)">
                                    <g id="1">
                                        <g id="index-fun-1-bj" transform="translate(25.000000, 0.000000)">
                                            <circle id="Oval-2-Copy" fill="#FFFFFF" opacity="0.01" cx="35" cy="35" r="35"></circle>
                                            <g id="icon-2" transform="translate(13.815789, 16.578947)" fill-rule="nonzero">
                                                <path d="M2.38984644,29.5868343 L2.38984644,33.2053412 C2.38984644,33.8625957 2.92007276,34.3997033 3.58471497,34.3997033 L31.5410294,34.3997033 L34.0933998,34.3997033 L39.3608834,34.3997033 C40.0184166,34.3997033 40.555752,33.8697017 40.555752,33.2053412 L40.555752,29.5868343 L2.38984644,29.5868343 Z" id="Shape" fill="#FFFFFF"></path>
                                                <path d="M41.7506205,27.1882711 L39.6719321,27.1882711 L39.6719321,3.57608933 C39.6719321,1.6043261 38.0669256,0 36.0943261,0 L6.85827195,0 C4.88567251,0 3.28066604,1.6043261 3.28066604,3.57608933 L3.28066604,27.1882711 L1.19486853,27.1882711 C0.537335387,27.1882711 0,27.718382 0,28.3826331 L0,33.1955021 C0,35.1672653 1.60500647,36.7715914 3.57760591,36.7715914 L39.3537744,36.7715914 C41.3263738,36.7715914 42.9313803,35.1672653 42.9313803,33.1955021 L42.9313803,28.3826331 C42.9384894,27.7253787 42.4081537,27.1882711 41.7506205,27.1882711 Z M40.555752,33.329198 C40.555752,34.0120073 40.0255256,34.5699984 39.3608834,34.5699984 L36.4761372,34.5699984 L34.0933998,34.5699984 L31.5410294,34.5699984 L29.158292,34.5699984 L3.58471497,34.5699984 C2.92718182,34.5699984 2.38984644,34.0193897 2.38984644,33.329198 L2.38984644,29.5699984 L40.5558613,29.5699984 L40.555752,33.329198 L40.555752,33.329198 Z M5.66340342,3.59022149 C5.66340342,2.92519019 6.19990359,2.38172732 6.8724101,2.38172732 L36.4543967,2.38172732 C37.1197101,2.38172732 37.6634034,2.91800006 37.6634034,3.59022149 L37.6634034,27.4817919 L5.66340342,27.4817919 L5.66340342,3.59022149 Z" id="Shape" fill="#2876C0"></path>
                                                <path d="M2,33.1351195 C2,33.8862098 2.54181568,34.5 3.22098521,34.5 L29.3607978,34.5 L29.3607978,32.706978 C29.3607978,31.9558877 29.9026135,31.3420975 30.581783,31.3420975 C31.2609525,31.3420975 31.8027682,31.9477671 31.8027682,32.706978 L31.8027682,34.5 L34.4109268,34.5 L34.4109268,32.706978 C34.4109268,31.9558877 34.9527424,31.3420975 35.631912,31.3420975 C36.3038171,31.3420975 36.8528972,31.9477671 36.8528972,32.706978 L36.8528972,34.5 L39.7790148,34.5 C40.4509199,34.5 41,33.8943304 41,33.1351195 L41,29 L2,29 L2,33.1351195 Z" id="Shape" fill="#E7BA6D"></path>
                                                <path d="M37.282195,3.58581915 C37.282195,2.92856474 36.7519687,2.39145713 36.0873265,2.39145713 L6.85827195,2.39145713 C6.20073881,2.39145713 5.66340342,2.92145869 5.66340342,3.58581915 L5.66340342,27.1980009 L37.282195,27.1980009 L37.282195,3.58581915 L37.282195,3.58581915 Z" id="Shape" fill="#FFFFFF"></path>
                                                <rect id="Rectangle-path" fill="#56ACE0" x="8.05314048" y="4.75908168" width="26.8533168" height="20.0360925"></rect>
                                                <path d="M17.5698719,10.4341871 C17.0961899,10.4341871 16.7072698,10.8229424 16.7072698,11.2964236 C16.7072698,11.7699047 17.0961899,12.15866 17.5698719,12.15866 C18.0435539,12.15866 18.432474,11.7699047 18.432474,11.2964236 C18.432474,10.822833 18.0436632,10.4341871 17.5698719,10.4341871 Z" id="Shape" fill="#FFFFFF"></path>
                                                <path d="M24.2726195,17.3531782 C23.7989375,17.3531782 23.4100174,17.7419335 23.4100174,18.2154146 C23.4100174,18.6888958 23.7989375,19.0776511 24.2726195,19.0776511 C24.7463015,19.0776511 25.1352216,18.6888958 25.1352216,18.2154146 C25.1211129,17.7418241 24.7464109,17.3531782 24.2726195,17.3531782 Z" id="Shape" fill="#FFFFFF"></path>
                                                <path d="M12.8751596,18.7383102 C12.4014776,18.7383102 12.0125575,19.1270654 12.0125575,19.6005466 C12.0125575,20.0740278 12.4014776,20.4627831 12.8751596,20.4627831 C13.3488416,20.4627831 13.7377617,20.0740278 13.7377617,19.6005466 C13.7377617,19.1199594 13.3489509,18.7383102 12.8751596,18.7383102 Z" id="Shape" fill="#FFFFFF"></path>
                                                <path d="M30.0703294,9.09846947 C29.5966475,9.09846947 29.2077273,9.48722474 29.2077273,9.96070592 C29.2077273,10.4341871 29.5966475,10.8229424 30.0703294,10.8229424 C30.5440114,10.8229424 30.9329316,10.4341871 30.9329316,9.96070592 C30.9329316,9.48000937 30.5441208,9.09846947 30.0703294,9.09846947 Z" id="Shape" fill="#FFFFFF"></path>
                                                <path d="M30.0703294,6.70963611 C28.2814718,6.70963611 26.82499,8.16550055 26.82499,9.95359988 C26.82499,10.5967515 27.0088411,11.1903795 27.3341079,11.6921755 L24.9089349,15.0279713 C24.7038659,14.9855536 24.4846882,14.9573481 24.2655105,14.9573481 C23.827155,14.9573481 23.4029084,15.0491801 23.0210973,15.2047478 L20.5181621,12.6180384 C20.7020133,12.2151804 20.815102,11.755802 20.815102,11.2823208 C20.815102,9.49422146 19.3586202,8.03835702 17.5697625,8.03835702 C15.7809049,8.03835702 14.324423,9.49422146 14.324423,11.2823208 C14.324423,12.0950336 14.6284719,12.8301265 15.1162627,13.4025457 L13.3769497,16.385007 C13.2143163,16.3566922 13.058792,16.3425894 12.8890496,16.3425894 C11.100192,16.3425894 9.6437101,17.7984538 9.6437101,19.5865532 C9.6437101,21.3746525 11.100192,22.8305169 12.8890496,22.8305169 C14.6779072,22.8305169 16.1343891,21.3746525 16.1343891,19.5865532 C16.1343891,18.8373575 15.8727758,18.1306887 15.4415294,17.5864751 L17.2444958,14.5121818 C17.3575845,14.5192878 17.4707826,14.5262846 17.5838713,14.5262846 C18.0222267,14.5262846 18.4464734,14.4344526 18.8282845,14.2788849 L21.3312196,16.8655943 C21.1473684,17.2684523 21.0342797,17.7278307 21.0342797,18.2013119 C21.0342797,19.9894112 22.4907616,21.4452757 24.2796192,21.4452757 C26.0684769,21.4452757 27.5249587,19.9894112 27.5249587,18.2013119 C27.5249587,17.5016399 27.2986719,16.8514915 26.9168609,16.3142746 L29.2642717,13.0774168 C29.525885,13.14804 29.7874983,13.1763548 30.0703294,13.1763548 C31.8591871,13.1763548 33.3156689,11.7204904 33.3156689,9.93239107 C33.3156689,8.14429174 31.8591871,6.70963611 30.0703294,6.70963611 Z M12.8751596,20.4627831 C12.4014776,20.4627831 12.0125575,20.0740278 12.0125575,19.6005466 C12.0125575,19.1270654 12.4014776,18.7383102 12.8751596,18.7383102 C13.3488416,18.7383102 13.7377617,19.1270654 13.7377617,19.6005466 C13.7377617,20.0741371 13.3489509,20.4627831 12.8751596,20.4627831 Z M17.5698719,12.1585507 C17.0961899,12.1585507 16.7072698,11.7697954 16.7072698,11.2963142 C16.7072698,10.822833 17.0961899,10.4340778 17.5698719,10.4340778 C18.0435539,10.4340778 18.432474,10.822833 18.432474,11.2963142 C18.432474,11.7699047 18.0436632,12.1585507 17.5698719,12.1585507 Z M24.2726195,19.0775418 C23.7989375,19.0775418 23.4100174,18.6887865 23.4100174,18.2153053 C23.4100174,17.7418241 23.7989375,17.3530689 24.2726195,17.3530689 C24.7463015,17.3530689 25.1352216,17.7418241 25.1352216,18.2153053 C25.1211129,18.6888958 24.7464109,19.0775418 24.2726195,19.0775418 Z M30.0703294,10.822833 C29.5966475,10.822833 29.2077273,10.4340778 29.2077273,9.9605966 C29.2077273,9.48711541 29.5966475,9.09836014 30.0703294,9.09836014 C30.5440114,9.09836014 30.9329316,9.48711541 30.9329316,9.9605966 C30.9329316,10.4341871 30.5441208,10.822833 30.0703294,10.822833 Z" id="Shape" fill="#2876C0"></path>
                                            </g>
                                        </g>
                                    </g>
                                </g>
                            </g>
                        </g>
                    </g>
                </g>
            </g>
        </g>
    </g>
</svg>