<?xml version="1.0" encoding="UTF-8"?>
<svg width="70px" height="70px" viewBox="0 0 70 70" version="1.1" xmlns="http://www.w3.org/2000/svg" xmlns:xlink="http://www.w3.org/1999/xlink">
    <!-- Generator: Sketch 52.1 (67048) - http://www.bohemiancoding.com/sketch -->
    <title>index-fun-7-zc</title>
    <desc>Created with Sketch.</desc>
    <g id="首页" stroke="none" stroke-width="1" fill="none" fill-rule="evenodd">
        <g id="#-1首页-建议底部" transform="translate(-430.000000, -654.000000)">
            <g id="Section-2-导航公告" transform="translate(0.000000, 467.000000)">
                <g id="menu">
                    <g id="菜单" transform="translate(0.000000, 11.000000)">
                        <g id="Group-14">
                            <g id="line2" transform="translate(0.000000, 159.000000)">
                                <g id="Categories-2" transform="translate(45.000000, 17.000000)">
                                    <g id="7" transform="translate(360.000000, 0.000000)">
                                        <g id="index-fun-7-zc" transform="translate(25.000000, 0.000000)">
                                            <circle id="Oval-2-Copy-5" fill="#FFFFFF" opacity="0.01" cx="35" cy="35" r="35"></circle>
                                            <g id="icon-2" transform="translate(16.578947, 16.578947)" fill-rule="nonzero">
                                                <path d="M17.2446364,7.14577474 C16.2446498,8.50330789 14.5295701,9.86084103 12.063024,9.86084103 C11.9175305,9.86084103 11.7721307,9.85474756 11.6206375,9.83656087 C11.6570108,14.0545601 14.6871568,17.478626 18.4082095,17.478626 C22.1535423,17.478626 25.1957814,14.0181867 25.1957814,9.76381412 C25.1957814,9.61232088 25.1836882,9.46082764 25.1715013,9.31533414 C20.814102,9.72753449 18.4384894,8.32153475 17.2446364,7.14577474 Z" id="Shape" fill="#FFFFFF"></path>
                                                <path d="M21.7292487,12.9576403 C21.3292353,12.5576269 20.686889,12.5576269 20.2807821,12.9576403 C19.2444221,13.9940003 17.5597161,13.9940003 16.5233561,12.9576403 C16.1233427,12.5576269 15.4809964,12.5576269 15.0748895,12.9576403 C14.6748761,13.3576537 14.6748761,14 15.0748895,14.4061069 C16.8929958,16.2544931 19.9716084,16.1878398 21.7230615,14.4061069 C22.1231686,14.0060935 22.1231686,13.3576537 21.7292487,12.9576403 Z" id="Shape" fill="#194F82"></path>
                                                <path d="M33.2074863,20.939159 C31.9832597,19.5452524 29.0015803,18.2180929 24.3351949,16.9756797 C26.1108343,15.1878532 27.2320343,12.6243739 27.2320343,9.76990759 C27.2381278,4.38833534 23.2746485,0.00674969867 18.402116,0.00674969867 C13.535677,0.00674969867 9.57219767,4.38833534 9.57219767,9.76990759 C9.57219767,12.6242802 10.6933976,15.1878532 12.4690371,16.9756797 C7.80255792,18.2119995 4.82087853,19.5452524 3.59674568,20.939159 C1.10591938,23.7874381 0.118119727,34.4779296 0.00899959823,35.6899692 C-0.0758403643,36.2596625 0.451386099,36.8050757 1.03317263,36.8050757 L35.7831525,36.8050757 C36.4074059,36.8050757 36.8618856,36.2717557 36.8073256,35.6960627 C36.6922057,34.4779296 35.7104058,23.7874381 33.2074863,20.939159 Z M18.402116,2.05509575 C21.3777019,2.05509575 23.9049016,4.24893532 24.8200482,7.28517477 C19.4687559,7.72156154 18.105223,5.01258872 18.0445694,4.9034686 C17.8869827,4.52773537 17.517343,4.28530869 17.1052364,4.28530869 L17.0931432,4.28530869 C16.6810366,4.29140217 16.3113968,4.54592206 16.1598098,4.92774876 C16.1113432,5.06714879 14.8993036,7.92152136 11.8448775,7.8064015 C12.6145306,4.49745547 15.2568501,2.05509575 18.402116,2.05509575 Z M11.6206375,9.84874782 C11.7721307,9.86084103 11.9176242,9.87302799 12.063024,9.87302799 C14.5234766,9.87302799 16.2446498,8.50949511 17.2446364,7.1579617 C18.4384894,8.33362796 20.8141958,9.72753449 25.1775948,9.33361457 C25.1836882,9.48510781 25.2018749,9.63060131 25.2018749,9.78209455 C25.2018749,14.0364671 22.159542,17.4969064 18.4143029,17.4969064 C14.6871568,17.4908129 11.6570108,14.066747 11.6206375,9.84874782 Z M11.7721307,19.2967323 C12.638717,19.0422124 13.5781438,18.7997857 14.5659435,18.557359 C15.7234231,19.1816124 17.0203964,19.5330655 18.3961162,19.5330655 C19.7718361,19.5330655 21.0687157,19.175519 22.226289,18.557359 C23.2262756,18.7936922 24.1595152,19.0422124 25.0201018,19.2967323 L25.0201018,24.1995447 L19.056743,19.8967055 C18.6507299,19.6239989 18.0628499,19.6482791 17.72349,19.8967055 L11.7601312,24.1995447 L11.7601312,19.2967323 L11.7721307,19.2967323 L11.7721307,19.2967323 Z M20.9232222,23.7511584 L18.3354627,26.0783045 L15.87501,23.7693451 L18.4082095,21.9451453 L20.9232222,23.7511584 Z M13.0205437,34.7567296 L2.15437257,34.7567296 C2.60885228,30.375144 3.71186554,23.9147449 5.12995848,22.2905986 C5.78449176,21.5512254 7.38435784,20.7391991 9.72978438,19.9391724 L9.72978438,26.2055176 C9.66922459,26.9206107 10.590371,27.5509575 11.3539306,27.0297308 L14.1841168,24.9873845 L15.00833,25.7631311 L13.0205437,34.7567296 Z M15.1113566,34.7567296 L16.7415964,27.3873711 L16.7415964,27.3873711 L17.6203696,28.2115843 C18.0021963,28.5570376 18.6081693,28.6115977 19.0020892,28.2236775 L20.0444489,27.2903442 L21.6988751,34.7566359 L15.1113566,34.7566359 L15.1113566,34.7567296 Z M23.7897817,34.7567296 L21.7899022,25.720758 L22.6141154,24.9813848 L25.4563948,27.0297308 C26.2745145,27.5630508 27.1532878,26.8721441 27.080541,26.2055176 L27.080541,19.9391724 C29.4198741,20.7451989 31.0258337,21.5573189 31.6803669,22.2905986 C33.0984599,23.9147449 34.2014731,30.3750502 34.6559529,34.7567296 L23.7897817,34.7567296 L23.7897817,34.7567296 Z" id="Shape" fill="#194F82"></path>
                                                <path d="M14.178117,24.9813848 L11.3540244,27.0237311 C10.5904647,27.5388643 9.68141154,26.9086112 9.72987813,26.1995179 L9.72987813,19.9331726 C7.39054506,20.7391991 5.78458551,21.5513191 5.13005223,22.2845989 C3.71186554,23.9086514 2.60894603,30.3690505 2.15437257,34.7506361 L13.0205437,34.7506361 L15.0144235,25.7510379 L14.178117,24.9813848 Z" id="Shape" fill="#56ACE0"></path>
                                                <path d="M27.0744476,19.9330789 L27.0744476,26.1994241 C27.1531941,26.8660506 26.2684211,27.562957 25.4503013,27.0236373 L22.608022,24.9752913 L21.7899022,25.720758 L23.7897817,34.7628231 L34.6559529,34.7628231 C34.2013794,30.3812374 33.0984599,23.9208384 31.6803669,22.2966921 C31.0197402,21.5512254 29.4197804,20.7391054 27.0744476,19.9330789 Z" id="Shape" fill="#56ACE0"></path>
                                                <path d="M11.7721307,24.1995447 L17.7354895,19.8967055 C18.0688496,19.6482791 18.6627293,19.6239989 19.0687425,19.8967055 L25.0321012,24.1995447 L25.0321012,19.2967323 C24.1655149,19.0422124 23.2260881,18.7997857 22.2382885,18.557359 C21.0808089,19.1816124 19.7838355,19.5330655 18.4081157,19.5330655 C17.0323959,19.5330655 15.7355163,19.175519 14.5779429,18.557359 C13.5840498,18.7936922 12.6447168,19.0422124 11.7841302,19.2967323 L11.7841302,24.1995447 L11.7721307,24.1995447 Z" id="Shape" fill="#E7BA6D"></path>
                                                <polygon id="Shape" fill="#FFC10D" points="18.402116 21.9330521 15.87501 23.7693451 18.3354627 26.0783045 20.9232222 23.7511584"></polygon>
                                                <path d="M20.0444489,27.2843444 L19.0020892,28.2236775 C18.6020758,28.6055042 18.0021026,28.5570376 17.6203696,28.2115843 L16.7415964,27.3934646 L16.7415964,27.3934646 L15.1113566,34.7628231 L21.6989688,34.7628231 L20.0444489,27.2843444 Z" id="Shape" fill="#E7BA6D"></path>
                                                <path d="M11.8448775,7.80030802 C14.8993036,7.92152136 16.1113432,5.06105531 16.1598098,4.92165528 C16.3113031,4.53982858 16.6810366,4.28530869 17.0931432,4.27921521 L17.1052364,4.27921521 C17.5112495,4.27921521 17.880983,4.51554841 18.0445694,4.89737512 C18.093036,5.00649525 19.4626624,7.72146779 24.8200482,7.27908129 C23.9049016,4.24284184 21.3777956,2.04900228 18.402116,2.04900228 C15.2568501,2.05509575 12.6145306,4.49745547 11.8448775,7.80030802 Z" id="Shape" fill="#56ACE0"></path>
                                            </g>
                                        </g>
                                    </g>
                                </g>
                            </g>
                        </g>
                    </g>
                </g>
            </g>
        </g>
    </g>
</svg>