<svg id="图层_1" data-name="图层 1" xmlns="http://www.w3.org/2000/svg" viewBox="0 0 76 76"><defs><style>.cls-1{fill:#f2f2f2;}.cls-2{fill:#fff;}.cls-3{fill:#ffc10d;}.cls-4{fill:#194f82;}.cls-5{fill:#56ace0;}</style></defs><title>fac-icon1</title><g id="首页"><g id="_1首页" data-name="1首页"><g id="Section-2-导航公告"><g id="menu"><g id="菜单"><g id="Categories-1"><g id="_1" data-name="1"><g id="Group-4"><circle id="Oval-2" class="cls-1" cx="38" cy="38" r="38"/><g id="icon-1"><path id="Shape" class="cls-2" d="M41.46,28.4V20.22h-16a1.11,1.11,0,0,0-1.11,1.11V54.62a1.11,1.11,0,0,0,1.11,1.11H49.66a1.11,1.11,0,0,0,1.11-1.11V29.51H42.56A1.11,1.11,0,0,1,41.46,28.4Z"/><path id="Shape-2" data-name="Shape" class="cls-3" d="M26.53,22.43V53.5h22V29.76l-.25-.25H42.56a1.11,1.11,0,0,1-1.11-1.11V22.69l-.27-.27H26.53Z"/><path id="Shape-3" data-name="Shape" class="cls-4" d="M46,36.54H38a1,1,0,1,1,0-2h8a1,1,0,1,1,0,2Z"/><path id="Shape-4" data-name="Shape" class="cls-4" d="M46,41.13H29.08a1,1,0,1,1,0-2H46a1,1,0,1,1,0,2Z"/><path id="Shape-5" data-name="Shape" class="cls-4" d="M46,45.71H29.08a1,1,0,1,1,0-2H46a1,1,0,1,1,0,2Z"/><path id="Shape-6" data-name="Shape" class="cls-4" d="M46,50.31H29.08a1,1,0,1,1,0-2H46a1.06,1.06,0,0,1,1.11,1A1.08,1.08,0,0,1,46,50.31Z"/><path id="Shape-7" data-name="Shape" class="cls-4" d="M32.81,29H31.54a.84.84,0,1,1,0-1.68h3.23a1.11,1.11,0,1,0,0-2.22h-1v-.37a1.11,1.11,0,0,0-2.23,0v.37h0a3.06,3.06,0,1,0,0,6.12H32.8a.84.84,0,1,1,0,1.68H29.57a1.11,1.11,0,1,0,0,2.22h2v.38a1.11,1.11,0,0,0,2.23,0V35a3.06,3.06,0,0,0-1-6Z"/><polygon id="Shape-8" data-name="Shape" class="cls-5" points="43.68 27.3 49.2 27.3 43.68 21.79 43.68 27.3"/><path id="Shape-9" data-name="Shape" class="cls-4" d="M52.68,27.62l-9.32-9.3a1.12,1.12,0,0,0-.79-.32H25.43a3.34,3.34,0,0,0-3.34,3.33V54.62A3.34,3.34,0,0,0,25.43,58H49.66A3.34,3.34,0,0,0,53,54.63V28.4A1.1,1.1,0,0,0,52.68,27.62Zm-1.9,27a1.11,1.11,0,0,1-1.11,1.11H25.43a1.11,1.11,0,0,1-1.11-1.11V21.33a1.11,1.11,0,0,1,1.11-1.11h16V28.4a1.11,1.11,0,0,0,1.11,1.11h8.21V54.62ZM43.68,27.3V21.79L49.2,27.3Z"/></g></g></g></g></g></g></g></g></g></svg>