<?xml version="1.0" encoding="UTF-8"?>
<svg width="70px" height="70px" viewBox="0 0 70 70" version="1.1" xmlns="http://www.w3.org/2000/svg" xmlns:xlink="http://www.w3.org/1999/xlink">
    <!-- Generator: Sketch 52.1 (67048) - http://www.bohemiancoding.com/sketch -->
    <title>index-fun-8-bg</title>
    <desc>Created with Sketch.</desc>
    <g id="首页" stroke="none" stroke-width="1" fill="none" fill-rule="evenodd">
        <g id="#-1首页-建议底部" transform="translate(-610.000000, -654.000000)">
            <g id="Section-2-导航公告" transform="translate(0.000000, 467.000000)">
                <g id="menu">
                    <g id="菜单" transform="translate(0.000000, 11.000000)">
                        <g id="Group-14">
                            <g id="line2" transform="translate(0.000000, 159.000000)">
                                <g id="Categories-2" transform="translate(45.000000, 17.000000)">
                                    <g id="8" transform="translate(540.000000, 0.000000)">
                                        <g id="index-fun-8-bg" transform="translate(25.000000, 0.000000)">
                                            <circle id="Oval-2-Copy-7" fill="#FFFFFF" opacity="0.01" cx="35" cy="35" r="35"></circle>
                                            <g id="chat" transform="translate(16.000000, 16.000000)" fill-rule="nonzero">
                                                <path d="M13.6346404,13.7304381 C7.29413992,13.7304381 2.1282512,17.7508969 2.1282512,22.6829639 C2.1282512,24.8166443 3.12604601,26.8933247 4.94481866,28.5268351 C5.222646,28.7737371 5.35530757,29.1536392 5.27950096,29.5209072 L4.26910427,34.8898763 L10.3507291,31.5215876 C10.5590996,31.4013196 10.8117232,31.3633196 11.0517449,31.4075876 C11.9169758,31.5595876 12.7821091,31.6418557 13.6156888,31.6418557 C19.9561893,31.6418557 25.122078,27.6213969 25.122078,22.6893299 C25.122078,17.7572629 19.9751409,13.7304381 13.6346404,13.7304381 Z" id="Shape" fill="#56ACE0"></path>
                                                <path d="M34.1717858,21.9042577 L33.2497976,16.9910928 C33.1803408,16.6301907 33.3129047,16.2502887 33.5844799,15.9970206 C35.2769408,14.4775103 36.2116286,12.5400979 36.2116286,10.5584175 C36.2116286,5.95552062 31.3867719,2.21369588 25.4693622,2.21369588 C19.5457004,2.21369588 14.7270958,5.9618866 14.7270958,10.5584175 C14.7270958,10.9193196 14.7586494,11.2802216 14.8155043,11.6411237 L14.8155043,11.6411237 C20.15821,12.0210258 24.6356848,14.9207784 26.4229039,18.8715052 C26.4229039,18.8715052 26.4292537,18.8715052 26.4292537,18.8778711 C26.9091994,18.8398711 27.9891507,18.6816031 28.0586075,18.6816031 C28.2417742,18.6816031 28.4122414,18.7259691 28.5701068,18.8208711 L34.1717858,21.9042577 Z" id="Shape" fill="#E7BA6D"></path>
                                                <path d="M13.4957268,21.1950876 L13.4957268,21.1950876 L13.4957268,21.1950876 Z" id="Shape" fill="#000000"></path>
                                                <path d="M13.6362037,23.335134 C13.6312912,23.335134 13.6312912,23.335134 13.6362037,23.335134 C13.6064217,23.335134 13.6213127,23.335134 13.6362037,23.335134 Z" id="Shape" fill="#000000"></path>
                                                <path d="M13.6346404,18.5929691 C14.3546079,18.5929691 14.9419138,19.1754072 14.9419138,19.9035773 C14.9419138,20.4923814 15.4155098,20.9735515 16.0091654,20.9735515 C16.5964713,20.9735515 17.0764171,20.4987474 17.0764171,19.9035773 C17.0764171,18.384067 16.0786223,17.0798247 14.7082419,16.6365567 L14.7082419,16.0857526 C14.7082419,15.4969485 14.2346459,15.0157784 13.6409902,15.0157784 C13.0473345,15.0157784 12.5737386,15.4905825 12.5737386,16.0857526 L12.5737386,16.6302887 C11.1970084,17.0861907 10.2055633,18.377701 10.2055633,19.8973093 C10.2055633,21.7967216 11.7465086,23.3415979 13.6410879,23.3415979 L13.6474377,23.3415979 C14.3042004,23.411232 14.9483613,23.955768 14.9483613,24.6332062 C14.9483613,25.3550103 14.3674052,25.9438144 13.6410879,25.9438144 C12.9211204,25.9438144 12.3338145,25.3612784 12.3338145,24.6332062 C12.3338145,24.0444021 11.8602186,23.563232 11.2665629,23.563232 C10.6729072,23.563232 10.1993112,24.0380361 10.1993112,24.6332062 C10.1993112,26.1527165 11.1971061,27.4569588 12.5674865,27.9002268 L12.5674865,28.4447629 C12.5674865,29.033567 13.0410824,29.5147371 13.6347381,29.5147371 C14.222044,29.5147371 14.7019898,29.039933 14.7019898,28.4447629 L14.7019898,27.9002268 C16.07872,27.4443247 17.070165,26.1528144 17.070165,24.6332062 C17.070165,22.7337938 15.4029079,21.1952835 13.5083286,21.1952835 L13.5019789,21.1952835 C12.8452161,21.1256495 12.3336192,20.5748454 12.3336192,19.8910412 C12.3273671,19.1754072 12.914673,18.5929691 13.6346404,18.5929691 Z" id="Shape" fill="#194F82"></path>
                                                <path d="M35.4537578,17.1747268 C37.3167835,15.3069485 38.3461318,12.983366 38.3461318,10.5584175 C38.3461318,4.77791237 32.5739856,0.0673814433 25.4693622,0.0673814433 C18.3647388,0.0673814433 12.5925925,4.77154639 12.5925925,10.5584175 C12.5925925,10.9129536 12.6241461,11.2674897 12.6683992,11.6283918 C5.60158139,12.0272938 0,16.8328247 0,22.6829639 C0,25.2471804 1.0862033,27.7163969 3.08179292,29.6980773 L1.76826746,36.7259227 C1.69246085,37.1374588 1.85667595,37.5426289 2.19135825,37.7832629 C2.60819695,38.0491649 2.97443278,38.0301649 3.32806673,37.8528969 L11.0642491,33.5665361 C11.9231302,33.7058041 12.7882635,33.7691701 13.628193,33.7691701 C21.149655,33.7691701 27.2628334,28.7991031 27.2628334,22.6829639 C27.2628334,22.0941598 27.1997263,21.5116237 27.0986183,20.9481856 C27.3575917,20.9228196 27.6164674,20.8975515 27.8754407,20.8595515 L35.1316773,24.8800103 C35.504263,25.0762784 35.8895481,25.0636443 36.2683858,24.8103763 C36.6030681,24.5697423 36.7672832,24.1519381 36.6914766,23.7530361 L35.4537578,17.1747268 Z M13.6346404,31.6354897 C12.7947109,31.6354897 11.92948,31.5594897 11.0706966,31.4012216 C10.8306749,31.3568557 10.5781489,31.4012216 10.3696808,31.5152216 L4.28805593,34.8835103 L5.29220052,29.5081753 C5.36165735,29.1472732 5.22909347,28.7673711 4.95751822,28.5141031 C3.13874557,26.8805928 2.14095076,24.8039124 2.14095076,22.670232 C2.14095076,17.738067 7.29423761,13.7177062 13.64734,13.7177062 C19.9878405,13.7177062 25.1537292,17.7381649 25.1537292,22.670232 C25.1537292,27.602299 19.9751409,31.6354897 13.6346404,31.6354897 Z M33.2497976,16.9910928 L34.1717858,21.9042577 L28.5702045,18.8018711 C28.4123391,18.7132371 28.2291724,18.6626031 28.0587052,18.6626031 C27.9955981,18.6689691 26.9219967,18.8272371 26.4357012,18.8652371 C24.648482,14.9081443 20.1710073,12.0147577 14.8156997,11.6348557 C14.7525926,11.2739536 14.7272912,10.9130515 14.7272912,10.5521495 C14.7272912,5.94925258 19.5521478,2.20742784 25.4695576,2.20742784 C31.3932194,2.20742784 36.2118239,5.95561856 36.2118239,10.5521495 C36.2118239,12.5401959 35.283486,14.4712423 33.5846753,15.9907526 C33.3065549,16.2502887 33.173991,16.6301907 33.2497976,16.9910928 Z" id="Shape" fill="#194F82"></path>
                                                <path d="M20.215065,8.88063918 L18.1121152,8.88063918 C17.5248093,8.88063918 17.0448636,9.3554433 17.0448636,9.9506134 C17.0448636,10.5457835 17.5184595,11.0205876 18.1121152,11.0205876 L20.215065,11.0205876 C20.8023709,11.0205876 21.2823166,10.5457835 21.2823166,9.9506134 C21.2824143,9.3554433 20.8023709,8.88063918 20.215065,8.88063918 Z" id="Shape" fill="#194F82"></path>
                                                <path d="M26.524012,8.88063918 L24.4210622,8.88063918 C23.8337563,8.88063918 23.3538106,9.3554433 23.3538106,9.9506134 C23.3538106,10.5457835 23.8274065,11.0205876 24.4210622,11.0205876 L26.524012,11.0205876 C27.1113179,11.0205876 27.5912636,10.5457835 27.5912636,9.9506134 C27.5912636,9.3554433 27.1113179,8.88063918 26.524012,8.88063918 Z" id="Shape" fill="#194F82"></path>
                                                <path d="M33.8939585,9.9506134 C33.8939585,9.36180928 33.4203625,8.88063918 32.8267069,8.88063918 L30.7237571,8.88063918 C30.1364512,8.88063918 29.6565054,9.3554433 29.6565054,9.9506134 C29.6565054,10.5457835 30.1301014,11.0205876 30.7237571,11.0205876 L32.8267069,11.0205876 C33.4202648,11.0143196 33.8939585,10.5394175 33.8939585,9.9506134 Z" id="Shape" fill="#194F82"></path>
                                            </g>
                                        </g>
                                    </g>
                                </g>
                            </g>
                        </g>
                    </g>
                </g>
            </g>
        </g>
    </g>
</svg>