<?xml version="1.0" encoding="UTF-8"?>
<svg width="70px" height="70px" viewBox="0 0 70 70" version="1.1" xmlns="http://www.w3.org/2000/svg" xmlns:xlink="http://www.w3.org/1999/xlink">
    <!-- Generator: Sketch 52.1 (67048) - http://www.bohemiancoding.com/sketch -->
    <title>index-fun-6-sj</title>
    <desc>Created with Sketch.</desc>
    <g id="首页" stroke="none" stroke-width="1" fill="none" fill-rule="evenodd">
        <g id="#-1首页-建议底部" transform="translate(-250.000000, -654.000000)">
            <g id="Section-2-导航公告" transform="translate(0.000000, 467.000000)">
                <g id="menu">
                    <g id="菜单" transform="translate(0.000000, 11.000000)">
                        <g id="Group-14">
                            <g id="line2" transform="translate(0.000000, 159.000000)">
                                <g id="Categories-2" transform="translate(45.000000, 17.000000)">
                                    <g id="6" transform="translate(180.000000, 0.000000)">
                                        <g id="index-fun-6-sj" transform="translate(25.000000, 0.000000)">
                                            <circle id="Oval-2-Copy-6" fill="#FFFFFF" opacity="0.01" cx="35" cy="35" r="35"></circle>
                                            <g id="icon-3" transform="translate(19.000000, 20.000000)" fill-rule="nonzero">
                                                <path d="M1.76894806,23.6490794 C1.76894806,24.1365171 2.16201159,24.5348506 2.65471932,24.5348506 L29.1760488,24.5348506 C29.6634865,24.5348506 30.0618201,24.1417871 30.0618201,23.6490794 L30.0618201,20.0115391 L1.76894806,20.0115391 L1.76894806,23.6490794 Z" id="Shape" fill="#56ACE0"></path>
                                                <path d="M30.0619012,2.63639582 C30.0619012,2.14895812 29.6688377,1.75062455 29.1761299,1.75062455 L2.65471932,1.75062455 C2.16728162,1.75062455 1.76894806,2.14368808 1.76894806,2.63639582 L1.76894806,18.2451855 L30.0619012,18.2451855 L30.0619012,2.63639582 L30.0619012,2.63639582 Z" id="Shape" fill="#FFFFFF"></path>
                                                <path d="M3.53530163,3.52743712 L3.53530163,6.30539418 L7.1046558,6.30539418 C7.5920935,6.30539418 7.99042707,6.69845772 7.99042707,7.19116545 C7.99042707,7.68387319 7.59736353,8.07693672 7.1046558,8.07693672 L3.53530163,8.07693672 L3.53530163,10.2939999 L5.49032246,10.2939999 C5.97776016,10.2939999 6.37609373,10.6870634 6.37609373,11.1797712 C6.37609373,11.6672089 5.9830302,12.0655424 5.49032246,12.0655424 L3.53530163,12.0655424 L3.53530163,16.4892909 L28.2902776,16.4892909 L28.2902776,3.52743712 L3.53530163,3.52743712 Z" id="Shape" fill="#E7BA6D"></path>
                                                <path d="M15.5223611,23.2035587 L16.3032992,23.2035587 C16.7907369,23.2035587 17.1890705,22.8104952 17.1890705,22.3177875 C17.1890705,21.8303498 16.7960069,21.4320162 16.3032992,21.4320162 L15.5223611,21.4320162 C15.0349234,21.4320162 14.6365898,21.8250797 14.6365898,22.3177875 C14.6365898,22.8104952 15.0296534,23.2035587 15.5223611,23.2035587 Z" id="Shape" fill="#194F82"></path>
                                                <path d="M29.1761299,0 L2.65471932,0 C1.19240623,0 0.00259447877,1.18981175 0.00259447877,2.65212484 L0.00259447877,23.6648084 C0.00259447877,25.1323915 1.19240623,26.3169332 2.65471932,26.3169332 L9.46846919,26.3169332 L8.27346849,30.0644957 L6.70113327,30.0644957 C6.21369558,30.0644957 5.81536201,30.4575592 5.81536201,30.9502669 C5.81536201,31.4429747 6.20842554,31.8360382 6.70113327,31.8360382 L25.1350671,31.8360382 C25.6225048,31.8360382 26.0208384,31.4429747 26.0208384,30.9502669 C26.0208384,30.4628292 25.6276937,30.0644957 25.1350671,30.0644957 L23.8404222,30.0644957 L22.6400704,26.3169332 L29.1813189,26.3169332 C30.643632,26.3169332 31.8334437,25.1271215 31.8334437,23.6648084 L31.8334437,2.65212484 C31.8282548,1.18981175 30.638443,0 29.1761299,0 Z M10.1289262,30.0592256 L11.3291969,26.3168522 L20.7794237,26.3168522 L21.9849645,30.0592256 L10.1289262,30.0592256 Z M30.0619012,23.6648084 C30.0619012,24.1522461 29.6688377,24.5505797 29.1761299,24.5505797 L2.65471932,24.5505797 C2.16728162,24.5505797 1.76894806,24.1575161 1.76894806,23.6648084 L1.76894806,20.0272681 L30.0619012,20.0272681 L30.0619012,23.6648084 L30.0619012,23.6648084 Z M30.0619012,18.2557256 L1.76894806,18.2557256 L1.76894806,2.65212484 C1.76894806,2.16468715 2.16201159,1.76635358 2.65471932,1.76635358 L29.1760488,1.76635358 C29.6634865,1.76635358 30.0618201,2.15941711 30.0618201,2.65212484 L30.0618201,18.2609145 L30.0618201,18.2609145 L30.0618201,18.2557256 L30.0619012,18.2557256 Z" id="Shape" fill="#194F82"></path>
                                                <polygon id="Shape" fill="#E7BA6D" points="11.3291969 26.3116632 10.1289262 30.0592256 21.9796944 30.0592256 20.7794237 26.3116632"></polygon>
                                                <path d="M12.5923838,11.5781858 L15.0086543,9.66508204 L15.0086543,6.43641536 C13.4152389,6.84001897 12.2412373,8.28660304 12.2412373,9.99531054 C12.2464263,10.5561233 12.3617995,11.0907481 12.5923838,11.5781858 Z" id="Shape" fill="#56ACE0"></path>
                                                <path d="M13.7140094,12.9409358 C14.3430083,13.4126445 15.1134875,13.6747679 15.9154246,13.6747679 C16.8851111,13.6747679 17.7970704,13.2973523 18.4731753,12.6422464 L15.9730707,11.1642043 L13.7140094,12.9409358 Z" id="Shape" fill="#FFFFFF"></path>
                                                <path d="M16.7802779,6.42595637 L16.7802779,9.58124794 L19.4062147,11.1326652 C19.5267769,10.7605196 19.589693,10.3831851 19.589693,9.9900405 C19.584423,8.27614404 18.3893412,6.82428994 16.7802779,6.42595637 Z" id="Shape" fill="#FFFFFF"></path>
                                                <path d="M15.9154246,4.71197883 C12.9959874,4.71197883 10.626904,7.08106226 10.626904,10.0004995 C10.626904,12.9199367 12.9959874,15.2838312 15.9154246,15.2838312 C18.8348619,15.2838312 21.2039453,12.9147478 21.2039453,9.99531054 C21.2039453,7.0758733 18.8348619,4.71197883 15.9154246,4.71197883 Z M15.9154246,13.6747679 C15.1134875,13.6747679 14.3430083,13.4179145 13.7140094,12.9409358 L15.9678007,11.1536642 L18.4679053,12.6317064 C17.7970704,13.3026223 16.8851111,13.6747679 15.9154246,13.6747679 Z M15.0139243,6.4416854 L15.0139243,9.67035207 L12.5976538,11.5834559 C12.3670695,11.0960182 12.2465073,10.5613934 12.2465073,10.0057695 C12.2464263,8.28660304 13.420509,6.84001897 15.0139243,6.4416854 Z M19.4062147,11.1379352 L16.7802779,9.58651798 L16.7802779,6.42595637 C18.3893412,6.81383095 19.584423,8.26568505 19.584423,9.99531054 C19.584423,10.3883741 19.5319659,10.7709786 19.4062147,11.1379352 Z" id="Shape" fill="#194F82"></path>
                                            </g>
                                        </g>
                                    </g>
                                </g>
                            </g>
                        </g>
                    </g>
                </g>
            </g>
        </g>
    </g>
</svg>