<?xml version="1.0" encoding="utf-8"?>
<!-- Generator: Adobe Illustrator 21.0.0, SVG Export Plug-In . SVG Version: 6.00 Build 0)  -->
<svg version="1.1" id="图层_1" xmlns="http://www.w3.org/2000/svg" xmlns:xlink="http://www.w3.org/1999/xlink" x="0px" y="0px"
	 viewBox="0 0 76 76" style="enable-background:new 0 0 76 76;" xml:space="preserve">
<style type="text/css">
	.st0{fill:#F2F2F2;}
	.st1{fill:#194F82;}
</style>
<circle id="Oval-2-Copy-7_1_" class="st0" cx="38" cy="38" r="38"/>
<title>fac-icon8</title>
<g>
	<path class="st1" d="M54.7,53l-8.6-8.6c2.2-2.6,3.4-5.8,3.4-9.2C49.4,27.4,43,21,35.2,21S21,27.4,21,35.2s6.4,14.2,14.2,14.2
		c2.1,0,4.1-0.4,6-1.3c0.6-0.3,0.8-1,0.6-1.6c-0.3-0.6-1-0.8-1.6-0.6c-1.6,0.7-3.3,1.1-5,1.1c-6.5,0-11.9-5.3-11.9-11.9
		c0-6.5,5.3-11.9,11.9-11.9c6.5,0,11.9,5.3,11.9,11.9c0,3.2-1.2,6.2-3.5,8.4c-0.5,0.5-0.5,1.2,0,1.7l9.4,9.4
		c0.2,0.2,0.5,0.3,0.8,0.3c0.3,0,0.6-0.1,0.8-0.3C55.1,54.2,55.1,53.5,54.7,53L54.7,53z"/>
	<path d="M26.3,31.5c0,0.7,0.6,1.3,1.3,1.3c0.7,0,1.3-0.6,1.3-1.3c0,0,0,0,0,0c0-0.7-0.6-1.3-1.3-1.3C26.9,30.2,26.3,30.8,26.3,31.5
		C26.3,31.5,26.3,31.5,26.3,31.5z"/>
	<path d="M25.5,36c0,0.7,0.6,1.3,1.3,1.3c0.7,0,1.3-0.6,1.3-1.3c0-0.7-0.6-1.3-1.3-1.3C26,34.8,25.5,35.3,25.5,36
		C25.5,36,25.5,36,25.5,36z"/>
	<path d="M27.5,39.8c0,0.7,0.6,1.3,1.3,1.3c0.7,0,1.3-0.6,1.3-1.3c0,0,0,0,0,0c0-0.7-0.6-1.3-1.3-1.3C28,38.6,27.5,39.1,27.5,39.8
		C27.5,39.8,27.5,39.8,27.5,39.8z"/>
</g>
</svg>
