<?xml version="1.0" encoding="UTF-8"?>
<svg width="70px" height="70px" viewBox="0 0 70 70" version="1.1" xmlns="http://www.w3.org/2000/svg" xmlns:xlink="http://www.w3.org/1999/xlink">
    <!-- Generator: Sketch 52.1 (67048) - http://www.bohemiancoding.com/sketch -->
    <title>index-fun-5-zx</title>
    <desc>Created with Sketch.</desc>
    <g id="首页" stroke="none" stroke-width="1" fill="none" fill-rule="evenodd">
        <g id="#-1首页-建议底部" transform="translate(-70.000000, -654.000000)">
            <g id="Section-2-导航公告" transform="translate(0.000000, 467.000000)">
                <g id="menu">
                    <g id="菜单" transform="translate(0.000000, 11.000000)">
                        <g id="Group-14">
                            <g id="line2" transform="translate(0.000000, 159.000000)">
                                <g id="Categories-2" transform="translate(45.000000, 17.000000)">
                                    <g id="5">
                                        <g id="index-fun-5-zx" transform="translate(25.000000, 0.000000)">
                                            <circle id="Oval-2-Copy-4" fill="#FFFFFF" opacity="0.01" cx="35" cy="35" r="35"></circle>
                                            <g id="icon-1" transform="translate(16.578947, 16.578947)" fill-rule="nonzero">
                                                <path d="M24.9989152,30.8956207 L24.9989152,3.06651935 C24.9989152,2.50291951 24.5444355,2.04234632 23.9747422,2.04234632 L3.06651935,2.04234632 C2.50291951,2.04234632 2.04234632,2.49682603 2.04234632,3.06651935 L2.04234632,30.8956207 C2.04234632,33.022807 3.7756127,34.7560734 5.90279898,34.7560734 L26.4412883,34.7560734 C25.5443284,33.7197134 24.9989152,32.3742735 24.9989152,30.8956207 Z" id="Shape" fill="#FFFFFF"></path>
                                                <path d="M7.64206509,21.077809 C8.47237177,21.077809 9.15109147,21.750529 9.15109147,22.5868354 C9.15109147,23.1504352 9.60557118,23.6110084 10.1752645,23.6110084 C10.7449578,23.6110084 11.1994375,23.1565287 11.1994375,22.5868354 C11.1994375,20.9868756 10.1327976,19.6294362 8.67223785,19.1869559 L8.67223785,18.5203294 C8.67223785,17.9567296 8.21775814,17.4961564 7.64806482,17.4961564 C7.0783715,17.4961564 6.62389179,17.9506361 6.62389179,18.5203294 L6.62389179,19.1869559 C5.16333199,19.6293424 4.09669211,20.9807821 4.09669211,22.5868354 C4.09669211,24.5443418 5.69055846,26.1382081 7.64806482,26.1382081 C7.61778492,26.1443016 7.64806482,26.1382081 7.6541583,26.1382081 C8.42381144,26.2109549 9.15109147,26.8473015 9.15109147,27.6290478 C9.15109147,28.4593545 8.4783715,29.1380742 7.64206509,29.1380742 C6.80575867,29.1380742 6.1330387,28.4653542 6.1330387,27.6290478 C6.1330387,27.065448 5.67855899,26.6048748 5.10886568,26.6048748 C4.53917236,26.6048748 4.08469265,27.0594482 4.08469265,27.6290478 C4.08469265,29.2290076 5.15133253,30.586447 6.61189233,31.0289273 L6.61189233,31.6894603 C6.61189233,32.2530601 7.06637204,32.7136333 7.63606535,32.7136333 C8.19966519,32.7136333 8.66023838,32.2591536 8.66023838,31.6894603 L8.66023838,31.0289273 C10.1207982,30.5865408 11.1874381,29.2351011 11.1874381,27.6290478 C11.1874381,25.6715414 9.4662649,24.0837686 7.50275881,24.0837686 C7.5330387,24.0776751 7.50275881,24.0837686 7.49666533,24.0837686 C6.72701219,24.0110218 6.13313245,23.3686755 6.13313245,22.5868354 C6.1330387,21.750529 6.81185215,21.077809 7.64206509,21.077809 Z" id="Shape" fill="#194F82"></path>
                                                <path d="M33.7318066,15.4235302 L27.0411678,15.4235302 L27.0411678,30.9016205 C27.0411678,33.0288067 28.7744342,34.7620731 30.9016205,34.7620731 L31.0773939,34.7559796 L31.0894871,34.7559796 C33.1318334,34.652953 34.7620731,32.9742467 34.7620731,30.9076202 L34.7620731,16.4417035 C34.7559796,15.8781037 34.2954065,15.4235302 33.7318066,15.4235302 Z" id="Shape" fill="#E7BA6D"></path>
                                                <path d="M19.8839561,6.1330387 L7.15721173,6.1330387 C6.59361189,6.1330387 6.1330387,6.58751841 6.1330387,7.15721173 L6.1330387,12.3570108 C6.1330387,12.9206107 6.58751841,13.3811839 7.15721173,13.3811839 L19.8839561,13.3811839 C20.4475559,13.3811839 20.9081291,12.9267042 20.9081291,12.3570108 L20.9081291,7.15721173 C20.9081291,6.59361189 20.4475559,6.1330387 19.8839561,6.1330387 Z" id="Shape" fill="#56ACE0"></path>
                                                <path d="M19.8839561,4.08469265 L7.15721173,4.08469265 C5.46641221,4.08469265 4.09069238,5.46041248 4.09069238,7.151212 L4.09069238,12.3510111 C4.09069238,14.0418106 5.46641221,15.4175305 7.15721173,15.4175305 L19.8839561,15.4175305 C21.5747556,15.4175305 22.9504754,14.0418106 22.9504754,12.3510111 L22.9504754,7.151212 C22.9504754,5.46031874 21.5747556,4.08469265 19.8839561,4.08469265 Z M20.9081291,12.3509174 C20.9081291,12.9145172 20.4536494,13.3750904 19.8839561,13.3750904 L7.15721173,13.3750904 C6.59361189,13.3750904 6.1330387,12.9206107 6.1330387,12.3509174 L6.1330387,7.151212 C6.1330387,6.58761216 6.58751841,6.12703897 7.15721173,6.12703897 L19.8839561,6.12703897 C20.4475559,6.12703897 20.9081291,6.58151868 20.9081291,7.151212 L20.9081291,12.3509174 L20.9081291,12.3509174 Z" id="Shape" fill="#194F82"></path>
                                                <path d="M21.9263024,21.4111691 L14.4114504,21.4111691 C13.8478505,21.4111691 13.3872774,21.8656489 13.3872774,22.4353422 C13.3872774,22.998942 13.8417571,23.4595152 14.4114504,23.4595152 L21.9263024,23.4595152 C22.4899022,23.4595152 22.9504754,23.0050355 22.9504754,22.4353422 C22.9504754,21.8717423 22.4899022,21.4111691 21.9263024,21.4111691 Z" id="Shape" fill="#194F82"></path>
                                                <path d="M21.9263024,25.7927548 L14.4114504,25.7927548 C13.8478505,25.7927548 13.3872774,26.2472345 13.3872774,26.8169278 C13.3872774,27.3805277 13.8417571,27.8411008 14.4114504,27.8411008 L21.9263024,27.8411008 C22.4899022,27.8411008 22.9504754,27.3865274 22.9504754,26.8169278 C22.9504754,26.253328 22.4899022,25.7927548 21.9263024,25.7927548 Z" id="Shape" fill="#194F82"></path>
                                                <path d="M33.7318066,13.3690907 L27.0411678,13.3690907 L27.0411678,3.06651935 C27.0412616,1.37571983 25.6655417,0 23.9746485,0 L3.06651935,0 C1.37571983,0 0,1.37571983 0,3.06651935 L0,30.8956207 C0,34.1561002 2.64231954,36.7984197 5.90279898,36.7984197 L30.9017142,36.7984197 L31.1320477,36.7984197 C31.1684211,36.7984197 31.2047944,36.7863265 31.2411678,36.7863265 C34.3319673,36.6045534 36.7985135,34.0409803 36.7985135,30.9017142 L36.7985135,16.4417035 C36.798326,14.7508102 35.4226999,13.3690907 33.7318066,13.3690907 Z M5.90279898,34.7559796 C3.7756127,34.7559796 2.04234632,33.0227133 2.04234632,30.895527 L2.04234632,3.06651935 C2.04234632,2.50291951 2.49682603,2.04234632 3.06651935,2.04234632 L23.9746485,2.04234632 C24.5382483,2.04234632 24.9988215,2.49682603 24.9988215,3.06651935 L24.9988215,30.8956207 C24.9988215,32.3743672 25.5503281,33.7197134 26.4472881,34.7560734 L5.90279898,34.7560734 L5.90279898,34.7559796 Z M34.7559796,30.8956207 C34.7559796,32.9621535 33.1257399,34.6469533 31.0833936,34.7439802 L31.0713004,34.7439802 L30.895527,34.7500737 C28.7683407,34.7500737 27.0350743,33.0168073 27.0350743,30.889621 L27.0350743,15.4235302 L29.8652605,15.4235302 L29.8652605,29.2471943 C29.8652605,29.8107942 30.3198339,30.2713673 30.8894335,30.2713673 C31.4590331,30.2713673 31.9136065,29.8167939 31.9136065,29.2471943 L31.9136065,15.4235302 L33.7256194,15.4235302 C34.2892192,15.4235302 34.7497924,15.8780099 34.7497924,16.4477032 L34.7497924,30.9016205 L34.7558859,30.9016205 L34.7558859,30.8956207 L34.7559796,30.8956207 Z" id="Shape" fill="#194F82"></path>
                                            </g>
                                        </g>
                                    </g>
                                </g>
                            </g>
                        </g>
                    </g>
                </g>
            </g>
        </g>
    </g>
</svg>