<?xml version="1.0" encoding="utf-8"?>
<!-- Generator: Adobe Illustrator 21.0.0, SVG Export Plug-In . SVG Version: 6.00 Build 0)  -->
<svg version="1.1" id="图层_1" xmlns="http://www.w3.org/2000/svg" xmlns:xlink="http://www.w3.org/1999/xlink" x="0px" y="0px"
	 viewBox="0 0 76 76" style="enable-background:new 0 0 76 76;" xml:space="preserve">
<style type="text/css">
	.st0{fill:#F2F2F2;}
	.st1{fill:#444444;}
</style>
<circle id="Oval-2-Copy-7_1_" class="st0" cx="37.8" cy="38" r="38"/>
<title>fac-icon8</title>
<g>
	<path class="st1" d="M47.5,52.1c-1.5,0-2.8-1.3-2.8-2.8c0-1.5,1.3-2.8,2.8-2.8c1.5,0,2.8,1.3,2.8,2.8
		C50.3,50.9,49.1,52.1,47.5,52.1 M28,42.3c-1.5,0-2.8-1.3-2.8-2.8c0-1.5,1.3-2.8,2.8-2.8c1.5,0,2.8,1.3,2.8,2.8
		C30.8,41.1,29.6,42.3,28,42.3 M47.5,27c1.5,0,2.8,1.3,2.8,2.8c0,1.5-1.3,2.8-2.8,2.8c-1.5,0-2.8-1.3-2.8-2.8
		C44.8,28.3,46,27,47.5,27 M47.5,43.7c-2.2,0-4.1,1.2-5,3.2l-8.9-5.1c-0.1-0.1-0.3-0.1-0.4-0.1c0.3-0.7,0.4-1.4,0.4-2.1
		c0-0.3,0-0.6-0.1-0.8c0,0,0.1,0,0.1,0l9.6-5.5c1,1.4,2.7,2.2,4.4,2.2c3.1,0,5.6-2.5,5.6-5.6c0-3.1-2.5-5.6-5.6-5.6
		c-3.1,0-5.6,2.5-5.6,5.6c0,0.3,0,0.6,0.1,0.9c0,0-0.1,0-0.1,0l-9.6,5.5c-1-1.4-2.7-2.2-4.4-2.2c-3.1,0-5.6,2.5-5.6,5.6
		c0,3.1,2.5,5.6,5.6,5.6c1.4,0,2.7-0.5,3.7-1.4c0.1,0.2,0.3,0.4,0.5,0.5l9.8,5.6c0,0,0,0,0,0c0.3,2.8,2.6,5,5.5,5
		c3.1,0,5.6-2.5,5.6-5.6C53.1,46.2,50.6,43.7,47.5,43.7"/>
</g>
</svg>
