<?xml version="1.0" encoding="UTF-8"?>
<svg width="70px" height="70px" viewBox="0 0 70 70" version="1.1" xmlns="http://www.w3.org/2000/svg" xmlns:xlink="http://www.w3.org/1999/xlink">
    <!-- Generator: Sketch 52.1 (67048) - http://www.bohemiancoding.com/sketch -->
    <title>index-fun-3-zk</title>
    <desc>Created with Sketch.</desc>
    <g id="首页" stroke="none" stroke-width="1" fill="none" fill-rule="evenodd">
        <g id="#-1首页-建议底部" transform="translate(-430.000000, -495.000000)">
            <g id="Section-2-导航公告" transform="translate(0.000000, 467.000000)">
                <g id="menu">
                    <g id="菜单" transform="translate(0.000000, 11.000000)">
                        <g id="Group-14">
                            <g id="line1">
                                <g id="Categories-1" transform="translate(45.000000, 17.000000)">
                                    <g id="3" transform="translate(360.000000, 0.000000)">
                                        <g id="index-fun-3-zk" transform="translate(25.000000, 0.000000)">
                                            <circle id="Oval-2-Copy-2" fill="#FFFFFF" opacity="0.01" cx="35" cy="35" r="35"></circle>
                                            <g id="智库" transform="translate(16.000000, 14.000000)" fill-rule="nonzero">
                                                <g id="dollar">
                                                    <g id="分组">
                                                        <path d="M31.8762268,19.752458 C30.3325033,17.5959338 29.3201115,15.3081018 28.8576132,12.9516183 C27.6326307,6.62582697 22.0516179,2.02521628 15.5894028,2.02521628 C15.2957009,2.02521628 15.0081863,2.03150127 14.7082004,2.05644784 C8.02082672,2.47522137 2.60861036,7.83215776 2.11488568,14.5017863 C1.88363652,17.7021985 2.72732858,20.7651145 4.57103789,23.3528855 C7.09592677,26.9033232 8.43962745,31.2351298 8.47085382,35.8857303 L22.7140424,35.8857303 L22.7140424,34.5542799 C22.7140424,32.2102697 24.6202044,30.3036947 26.9639223,30.3036947 C28.1451106,30.3036947 29.1013336,29.347313 29.1013336,28.1659288 L29.1013336,25.4218066 C29.1825415,25.115486 29.3950355,24.8592519 29.688834,24.734229 L32.5887294,23.8404071 C33.0137174,23.7029109 33.3387423,23.3903053 33.4762157,22.9715318 C33.619973,22.5527583 33.5512363,22.0963715 33.2887608,21.7401578 L31.8762268,19.752458 Z" id="Shape" fill="#FFFFFF"></path>
                                                        <path d="M34.9511058,20.521257 L33.5323845,18.5397455 C32.1699287,16.6332672 31.2762551,14.6329975 30.8824934,12.5952112 C29.4076033,4.96929771 22.4766059,-0.462671756 14.5956695,0.0311348601 C6.88343277,0.512468193 0.646182844,6.68829008 0.0711535866,14.3829517 C-0.197605885,18.0147074 0.802411371,21.6401781 2.89602832,24.5842595 C5.18348078,27.797145 6.38961142,31.7476947 6.38961142,35.9919949 L6.38961142,36.8983868 C6.38961142,37.4796997 6.858297,37.9547481 7.44579747,37.9547481 L23.7451893,37.9547481 C24.3264058,37.9547481 24.8013754,37.4859847 24.8013754,36.8983868 L24.8013754,34.5230483 C24.8013754,33.3478524 25.7575984,32.3915674 26.9325026,32.3915674 C29.2699366,32.3915674 31.1698147,30.4912774 31.1698147,28.1535522 L31.1698147,26.4720763 L33.1572813,25.8595318 C35.3636226,25.1781425 36.351072,22.54657 34.9511058,20.521257 Z M33.482403,22.9716285 C33.3386457,23.390402 33.0137174,23.7091959 32.5949167,23.8405038 L29.6950213,24.7343257 C29.4013194,24.8718219 29.1888254,25.1155827 29.1075208,25.4219033 L29.1075208,28.1660254 C29.1075208,29.3474097 28.1512978,30.3037913 26.9701096,30.3037913 C24.6264884,30.3037913 22.7202296,32.2102697 22.7202296,34.5543766 L22.7202296,35.885827 L8.47085382,35.885827 C8.43962745,31.2415115 7.09592677,26.9034198 4.57103789,23.3529822 C2.72732858,20.7651145 1.88363652,17.7022952 2.12116963,14.5080712 C2.61489431,7.82596947 8.02720734,2.48150636 14.7144844,2.06273282 C15.0081863,2.05025954 15.3019848,2.03150127 15.5956867,2.03150127 C22.0579019,2.03150127 27.6327274,6.62582697 28.8638971,12.9579033 C29.3201115,15.3144835 30.3326,17.5960305 31.8825107,19.758743 L33.3074193,21.7465394 C33.5574236,22.1089415 33.6198763,22.5590433 33.482403,22.9716285 Z" id="Shape" fill="#2876C0"></path>
                                                        <path d="M30.1012541,20.9775471 C28.382547,18.5772621 27.2576242,16.0269109 26.7388605,13.3765802 C25.7076168,8.05716031 21.0265616,4.19411705 15.6017773,4.19411705 C15.358057,4.19411705 15.1080527,4.20040204 14.8643323,4.21916031 C10.0582749,4.52548092 6.03964405,7.86338931 4.72098247,12.3326921 L7.6771433,12.3326921 C8.25835983,12.3326921 8.73332935,12.8014555 8.73332935,13.3890534 C8.73332935,13.9703664 8.26464377,14.4454148 7.6771433,14.4454148 L4.30846568,14.4454148 C4.30218174,14.5266361 4.28342658,14.6016692 4.27723931,14.6767023 C4.20221868,15.6455573 4.25220021,16.6019389 4.42099663,17.5332774 L6.00223041,17.5332774 C6.58344693,17.5332774 7.05841646,18.0020407 7.05841646,18.5896387 C7.05841646,19.1709517 6.58973088,19.65857 6.00223041,19.65857 L5.00221315,19.65857 C5.33970931,20.5274453 5.77716852,21.3649924 6.33344262,22.140173 C8.71457419,25.4968397 10.1457667,29.4598626 10.508302,33.7353944 L20.6328966,33.7353944 C21.0203743,30.6037303 23.6953045,28.1659288 26.9514511,28.1534555 L26.9514511,23.3528855 L30.9200038,22.1276997 L30.1012541,20.9775471 Z" id="Shape" fill="#56ACE0"></path>
                                                        <path d="M15.1830733,14.2329822 L15.1932443,14.2329822 C15.2289613,14.2329822 15.1983693,14.2329822 15.1830733,14.2329822 Z" id="Shape" fill="#000000"></path>
                                                        <path d="M15.383566,16.3519898 L15.3733949,16.3519898 C15.3376779,16.3621592 15.3733161,16.3519898 15.383566,16.3519898 Z" id="Shape" fill="#000000"></path>
                                                    </g>
                                                    <path d="M15.328174,25.234375 C15.1946745,25.234375 15.0897821,25.1930537 15.032568,25.1676253 C14.8418545,25.075447 14.6161768,24.8656621 14.6384267,24.3920568 C14.6447838,24.268093 14.6638552,24.1282364 14.6892836,23.9470586 L15.2804956,19.3826477 L12.4134353,19.3826477 C12.3307928,19.3826477 12.2545074,19.3890048 12.1845791,19.3921834 C12.1019365,19.3985405 12.0320082,19.401719 11.9589014,19.3985405 C11.5615815,19.3794691 11.399475,19.1220058 11.3454395,19.0139348 C11.1451902,18.5848294 11.4662247,18.2447235 11.5901885,18.1144026 L18.0363064,11.334536 C18.1316631,11.2328221 18.2174842,11.1597153 18.3001268,11.1088583 C18.6179827,10.9054306 18.8945173,11.0007873 18.9994098,11.0516443 C19.1901233,11.1438225 19.415801,11.3536074 19.3935511,11.8272127 C19.387194,11.9511765 19.3681226,12.0910331 19.3426942,12.272211 L18.7546607,16.8334433 L21.621721,16.8334433 C21.7043636,16.8334433 21.780649,16.8270862 21.8505773,16.8239076 C21.9332198,16.8175505 22.0031481,16.8143719 22.076255,16.8175505 C22.4735749,16.8366218 22.6356814,17.0940851 22.6897169,17.2021561 C22.8899661,17.6312616 22.5689317,17.9713674 22.4449678,18.1016884 L22.4449678,18.1048669 L15.9956714,24.8815549 C15.9003146,24.9832688 15.8144936,25.0531971 15.731851,25.1072326 C15.5856373,25.2025894 15.4457807,25.234375 15.328174,25.234375 Z M13.3129675,18.1271168 L15.9956714,18.1271168 C16.1768493,18.1271168 16.3484915,18.2034023 16.4660982,18.3400803 C16.5868834,18.4767583 16.6409189,18.6547577 16.618669,18.8359355 L16.0846711,22.9680624 L20.7221888,18.0921527 L18.0394849,18.0921527 C17.8583071,18.0921527 17.6866649,18.0158673 17.5690582,17.8791892 C17.4482729,17.7425112 17.3942374,17.5645119 17.4164873,17.383334 L17.9504853,13.2512072 L13.3129675,18.1271168 Z" id="形状" fill="#194F82"></path>
                                                </g>
                                            </g>
                                        </g>
                                    </g>
                                </g>
                            </g>
                        </g>
                    </g>
                </g>
            </g>
        </g>
    </g>
</svg>