<svg id="图层_1" data-name="图层 1" xmlns="http://www.w3.org/2000/svg" viewBox="0 0 76 76"><defs><style>.cls-1{fill:#f2f2f2;}.cls-2{fill:#fff;}.cls-3{fill:#56ace0;}.cls-4{fill:#ffc10d;}.cls-5{fill:#194f82;}</style></defs><title>fac-icon9</title><g id="Page"><g id="_1首页" data-name="1首页"><g id="Section-2-导航公告"><g id="menu"><g id="菜单"><g id="Categories-2"><g id="_6" data-name="6"><g id="Group-4"><circle id="Oval-2-Copy-5" class="cls-1" cx="38" cy="38" r="38"/><g id="check-1"><path id="Shape" class="cls-2" d="M38.55,28,22,28a1,1,0,0,0-1,1V49a1,1,0,0,0,1,1H52a1,1,0,0,0,1-1V29a1,1,0,0,0-1-1"/><polyline id="Shape-2" data-name="Shape" class="cls-3" points="37.06 30.02 23 30 23 48 51 48 51 30.04"/><path id="Shape-3" data-name="Shape" class="cls-4" d="M50.91,18.35,39.29,30,39,32l2-.29L52.64,20.08a1.23,1.23,0,0,0,0-1.74A1.25,1.25,0,0,0,50.91,18.35Z"/><path id="Shape-4" data-name="Shape" class="cls-5" d="M32,35H26a1,1,0,0,1,0-2H32a1,1,0,0,1,0,2Z"/><path id="Shape-5" data-name="Shape" class="cls-5" d="M41,40H26a1,1,0,0,1,0-2H41a1,1,0,0,1,0,2Z"/><path id="Shape-6" data-name="Shape" class="cls-5" d="M32,46H26a1,1,0,0,1,0-2H32a1,1,0,0,1,0,2Z"/><path id="Shape-7" data-name="Shape" class="cls-5" d="M43.48,47H43.4a.94.94,0,0,1-.7-.48l-.39-.64-.67.79a.86.86,0,0,1-1.36,0,1.28,1.28,0,0,1,0-1.6l1.47-1.73a.87.87,0,0,1,.76-.33.94.94,0,0,1,.7.48l.39.64.66-.78a.86.86,0,0,1,1-.28l2.09.87a1.2,1.2,0,0,1,.59,1.44.94.94,0,0,1-1.23.69l-1.52-.63-1,1.22A.88.88,0,0,1,43.48,47Z"/><path id="Shape-8" data-name="Shape" class="cls-5" d="M52,25.88H49.73L54,21.56A3.25,3.25,0,0,0,54,17a3.21,3.21,0,0,0-4.6,0l-8.9,8.89L22,25.84a3,3,0,0,0-3,3V49a3,3,0,0,0,3,3H52a3,3,0,0,0,3-3V28.88A3,3,0,0,0,52,25.88ZM39,30.22,50.87,18.38a1.28,1.28,0,0,1,1.77,0,1.25,1.25,0,0,1,0,1.77L40.79,32l-2.06.3ZM53,49a1,1,0,0,1-1,1H22a1,1,0,0,1-1-1V28.88a1,1,0,0,1,1-1l16.59,0L37.38,29a1,1,0,0,0-.28.57l-.53,3.71a1,1,0,0,0,.28.85,1,1,0,0,0,.85.28l3.71-.53a1,1,0,0,0,.57-.28l5.76-5.76H52a1,1,0,0,1,1,1V49h0Z"/></g></g></g></g></g></g></g></g></g></svg>