<svg id="图层_1" data-name="图层 1" xmlns="http://www.w3.org/2000/svg" viewBox="0 0 76 76"><defs><style>.cls-1{fill:#f2f2f2;}.cls-2{fill:#fff;}.cls-3{fill:#194f82;}.cls-4{fill:#56ace0;}.cls-5{fill:#ffc10d;}</style></defs><title>fac-icon6</title><g id="首页"><g id="_1首页" data-name="1首页"><g id="Section-2-导航公告"><g id="menu"><g id="菜单"><g id="Categories-2"><g id="_6" data-name="6"><g id="Group-9"><circle id="Oval-2-Copy-5" class="cls-1" cx="38" cy="38" r="38"/><g id="icon-2"><path id="Shape" class="cls-2" d="M36.72,25.76a6.92,6.92,0,0,1-5.63,2.95,4,4,0,0,1-.48,0c0,4.58,3.33,8.3,7.37,8.3s7.37-3.76,7.37-8.38c0-.16,0-.33,0-.49C40.6,28.56,38,27,36.72,25.76Z"/><path id="Shape-2" data-name="Shape" class="cls-3" d="M41.59,32.07a1.11,1.11,0,0,0-1.57,0,2.89,2.89,0,0,1-4.08,0,1.11,1.11,0,0,0-1.57,1.57,5.15,5.15,0,0,0,7.22,0A1.12,1.12,0,0,0,41.59,32.07Z"/><path id="Shape-3" data-name="Shape" class="cls-3" d="M54.05,40.73c-1.33-1.51-4.57-3-9.63-4.3a11.08,11.08,0,0,0,3.15-7.82c0-5.84-4.3-10.6-9.59-10.6s-9.59,4.76-9.59,10.6a11.08,11.08,0,0,0,3.15,7.82c-5.07,1.34-8.3,2.79-9.63,4.3-2.7,3.09-3.78,14.7-3.9,16A1.12,1.12,0,0,0,19.12,58H56.85A1.11,1.11,0,0,0,58,56.76C57.84,55.43,56.77,43.83,54.05,40.73ZM38,20.23a7.53,7.53,0,0,1,7,5.68c-5.81.47-7.29-2.47-7.36-2.59a1.1,1.1,0,0,0-1-.67h0a1.11,1.11,0,0,0-1,.7,5.05,5.05,0,0,1-4.68,3.13C31.7,22.88,34.56,20.23,38,20.23Zm-7.36,8.46.48,0a6.94,6.94,0,0,0,5.63-2.95C38,27,40.6,28.56,45.34,28.13c0,.16,0,.32,0,.49,0,4.62-3.3,8.38-7.37,8.38S30.66,33.27,30.62,28.69ZM30.78,39c.94-.28,2-.54,3-.8a8.69,8.69,0,0,0,8.32,0c1.09.26,2.1.53,3,.8v5.32L38.69,39.6a1.34,1.34,0,0,0-1.45,0l-6.47,4.67V39Zm9.94,4.84-2.81,2.53-2.67-2.51,2.75-2ZM32.14,55.74H20.34C20.83,51,22,44,23.57,42.2c.71-.8,2.45-1.68,5-2.55v6.8a1.11,1.11,0,0,0,1.76.89l3.07-2.22.89.84Zm2.27,0,1.77-8h0l1,.89a1.09,1.09,0,0,0,1.5,0l1.13-1,1.8,8.11H34.41Zm9.42,0-2.17-9.81.89-.8,3.09,2.22a1.11,1.11,0,0,0,1.76-.89v-6.8c2.54.88,4.28,1.76,5,2.55C53.94,44,55.13,51,55.63,55.74Z"/><path id="Shape-4" data-name="Shape" class="cls-4" d="M33.39,45.12l-3.07,2.22a1.12,1.12,0,0,1-1.76-.89v-6.8c-2.54.88-4.28,1.76-5,2.55C22,44,20.83,51,20.34,55.73h11.8L34.3,46Z"/><path id="Shape-5" data-name="Shape" class="cls-4" d="M47.4,39.64v6.8a1.11,1.11,0,0,1-1.76.89l-3.09-2.22-.89.81,2.17,9.82h11.8C55.13,51,53.94,44,52.4,42.21,51.68,41.4,49.94,40.52,47.4,39.64Z"/><path id="Shape-6" data-name="Shape" class="cls-5" d="M30.78,44.27l6.47-4.67a1.34,1.34,0,0,1,1.45,0l6.47,4.67V39c-.94-.28-2-.54-3-.8a8.69,8.69,0,0,1-8.32,0c-1.08.26-2.1.53-3,.8v5.32Z"/><polygon id="Shape-7" data-name="Shape" class="cls-5" points="37.98 41.81 35.24 43.81 37.91 46.31 40.72 43.79 37.98 41.81"/><path id="Shape-8" data-name="Shape" class="cls-5" d="M39.76,47.62l-1.13,1a1.1,1.1,0,0,1-1.5,0l-1-.89h0l-1.77,8h7.15Z"/><path id="Shape-9" data-name="Shape" class="cls-4" d="M30.86,26.47a5,5,0,0,0,4.68-3.13,1.11,1.11,0,0,1,1-.7h0a1.1,1.1,0,0,1,1,.67c.05.12,1.54,3.07,7.36,2.59a7.53,7.53,0,0,0-7-5.68C34.56,20.23,31.7,22.88,30.86,26.47Z"/></g></g></g></g></g></g></g></g></g></svg>