<svg id="图层_1" data-name="图层 1" xmlns="http://www.w3.org/2000/svg" viewBox="0 0 76 76"><defs><style>.cls-1{fill:#f2f2f2;}.cls-2{fill:#194f82;}.cls-3{fill:#56ace0;}.cls-4{fill:#ffc10d;}</style></defs><title>fac-icon8</title><g id="首页"><g id="_1首页" data-name="1首页"><g id="Section-2-导航公告"><g id="menu"><g id="菜单"><g id="Categories-2"><g id="_8" data-name="8"><g id="Group-11"><circle id="Oval-2-Copy-7" class="cls-1" cx="38" cy="38" r="38"/><g id="icon-4"><g id="Group"><path id="Shape" class="cls-2" d="M49.54,26.4a4.2,4.2,0,1,0-4.2-4.2A4.21,4.21,0,0,0,49.54,26.4Zm0-6.18a2,2,0,1,1-2,2A2,2,0,0,1,49.54,20.22Z"/><path id="Shape-2" data-name="Shape" class="cls-2" d="M49.54,28.28a6.05,6.05,0,0,0-6,6v2.2a19.21,19.21,0,0,1-4.74.78,1.11,1.11,0,0,0-1.06,1.16,1.12,1.12,0,0,0,1.16,1.06,21.65,21.65,0,0,0,4.65-.69v4.44a1.11,1.11,0,0,0,1.11,1.11h1.7V56.85A1.11,1.11,0,0,0,47.41,58h4.25a1.11,1.11,0,0,0,1.11-1.11V44.39h1.7a1.11,1.11,0,0,0,1.11-1.11V34.34A6.06,6.06,0,0,0,49.54,28.28Zm1,27.46h-2V44.39h2Zm2.82-13.57H45.71V38.08a11.7,11.7,0,0,0,4.72-3.3,1.11,1.11,0,1,0-1.78-1.31,8.51,8.51,0,0,1-2.93,2.18V34.33a3.83,3.83,0,0,1,7.66,0v7.84Z"/><path id="Shape-3" data-name="Shape" class="cls-3" d="M49.54,30.51a3.83,3.83,0,0,0-3.83,3.83v1.32a9,9,0,0,0,2.93-2.18,1.11,1.11,0,0,1,1.78,1.31,11.64,11.64,0,0,1-4.72,3.3v4.09h7.66V34.35A3.83,3.83,0,0,0,49.54,30.51Z"/><path id="Shape-4" data-name="Shape" class="cls-4" d="M49.54,24.19a2,2,0,1,0-2-2A2,2,0,0,0,49.54,24.19Z"/><rect id="Rectangle-path" class="cls-3" x="48.52" y="44.39" width="2.04" height="11.35"/></g><g id="Group-2" data-name="Group"><path id="Shape-5" data-name="Shape" class="cls-2" d="M26.09,26.4a4.2,4.2,0,1,1,4.2-4.2A4.21,4.21,0,0,1,26.09,26.4Zm0-6.18a2,2,0,1,0,2,2A2,2,0,0,0,26.09,20.22Z"/><path id="Shape-6" data-name="Shape" class="cls-2" d="M26.09,28.28a6.05,6.05,0,0,1,6,6v2.2a19.21,19.21,0,0,0,4.74.78,1.11,1.11,0,0,1,1.06,1.16,1.12,1.12,0,0,1-1.16,1.06,21.65,21.65,0,0,1-4.65-.69v4.44A1.11,1.11,0,0,1,31,44.39h-1.7V56.85A1.11,1.11,0,0,1,28.21,58H24a1.11,1.11,0,0,1-1.11-1.11V44.39h-1.7A1.11,1.11,0,0,1,20,43.28V34.34A6.06,6.06,0,0,1,26.09,28.28Zm-1,27.46h2V44.39h-2ZM22.25,42.17h7.67V38.08a11.7,11.7,0,0,1-4.72-3.3A1.11,1.11,0,1,1,27,33.47a8.51,8.51,0,0,0,2.93,2.18V34.33a3.83,3.83,0,0,0-7.66,0v7.84Z"/><path id="Shape-7" data-name="Shape" class="cls-3" d="M26.09,30.51a3.83,3.83,0,0,1,3.83,3.83v1.32A9,9,0,0,1,27,33.48a1.11,1.11,0,0,0-1.78,1.31,11.64,11.64,0,0,0,4.72,3.3v4.09H22.26V34.35A3.83,3.83,0,0,1,26.09,30.51Z"/><path id="Shape-8" data-name="Shape" class="cls-4" d="M26.09,24.19a2,2,0,1,1,2-2A2,2,0,0,1,26.09,24.19Z"/><rect id="Rectangle-path-2" data-name="Rectangle-path" class="cls-3" x="25.06" y="44.39" width="2.04" height="11.35"/></g></g></g></g></g></g></g></g></g></g></svg>