<?xml version="1.0" encoding="UTF-8"?>
<svg width="70px" height="70px" viewBox="0 0 70 70" version="1.1" xmlns="http://www.w3.org/2000/svg" xmlns:xlink="http://www.w3.org/1999/xlink">
    <!-- Generator: Sketch 52.1 (67048) - http://www.bohemiancoding.com/sketch -->
    <title>index-fun-2-zc</title>
    <desc>Created with Sketch.</desc>
    <g id="首页" stroke="none" stroke-width="1" fill="none" fill-rule="evenodd">
        <g id="#-1首页-建议底部" transform="translate(-250.000000, -495.000000)">
            <g id="Section-2-导航公告" transform="translate(0.000000, 467.000000)">
                <g id="menu">
                    <g id="菜单" transform="translate(0.000000, 11.000000)">
                        <g id="Group-14">
                            <g id="line1">
                                <g id="Categories-1" transform="translate(45.000000, 17.000000)">
                                    <g id="2" transform="translate(180.000000, 0.000000)">
                                        <g id="index-fun-2-zc" transform="translate(25.000000, 0.000000)">
                                            <circle id="Oval-2" fill="#FFFFFF" opacity="0.01" cx="35" cy="35" r="35"></circle>
                                            <g id="check" transform="translate(15.000000, 22.000000)" fill-rule="nonzero">
                                                <path d="M36.6231043,2.25130787 L9.71175573,2.25130787 L9.71175573,4.13720638 C9.71175573,4.74828873 9.21832061,5.24766458 8.59979644,5.24766458 L8.59979644,20.8404288 C9.21170483,20.8404288 9.71175573,21.3331978 9.71175573,21.950887 L9.71175573,23.8367855 L36.6231043,23.8367855 C37.2350127,23.8367855 37.7350636,23.3440165 37.7350636,22.7263273 L37.7350636,3.35526086 C37.7350636,2.74417851 37.2350127,2.25130787 36.6231043,2.25130787 Z" id="Shape" fill="#FFFFFF"></path>
                                                <path d="M8.59318066,5.24115937 C7.98127226,5.24115937 7.48122137,4.74839038 7.48122137,4.13070118 L7.48122137,2.24480267 L3.32936387,2.24480267 C2.71745547,2.24480267 2.21740458,2.73757167 2.21740458,3.35526086 L2.21740458,22.7131136 C2.21740458,23.324196 2.71083969,23.8235718 3.32936387,23.8235718 L7.48783715,23.8235718 L7.48783715,21.937775 C7.48783715,21.3266926 7.98127226,20.8273168 8.59979644,20.8273168 L8.59979644,20.8273168 L8.59318066,5.24115937 L8.59318066,5.24115937 Z" id="Shape" fill="#E7BA6D"></path>
                                                <rect id="Rectangle-path" fill="#56ACE0" x="8.59318066" y="4.452607" width="26.9244784" height="17.1369364"></rect>
                                                <path d="M29.6156743,12.7385055 L28.3260051,12.7385055 C27.8456997,12.7385055 27.4640204,12.3442293 27.4640204,11.8776844 C27.4640204,11.3980275 27.8588295,11.0168633 28.3260051,11.0168633 L31.5896183,11.0168633 C32.2015267,11.0168633 32.7015776,10.5240943 32.7015776,9.90640515 C32.7015776,9.2953228 32.2080407,8.79594695 31.5896183,8.79594695 L30.576285,8.79594695 L30.576285,8.40167077 C30.576285,7.79058842 30.0828499,7.29121258 29.4643257,7.29121258 C28.8458015,7.29121258 28.3523664,7.78398158 28.3523664,8.40167077 L28.3523664,8.79594695 L28.3194911,8.79594695 C26.615369,8.79594695 25.226972,10.1758628 25.226972,11.8842913 C25.226972,13.5796077 26.6087532,14.9726356 28.3194911,14.9726356 L29.6091603,14.9726356 C30.0894656,14.9726356 30.471145,15.3669118 30.471145,15.8465687 C30.471145,16.3262257 30.0763359,16.7073898 29.6091603,16.7073898 L26.3389313,16.7073898 C25.7270229,16.7073898 25.226972,17.2001588 25.226972,17.817848 C25.226972,18.4355372 25.7204071,18.9283062 26.3389313,18.9283062 L28.3457506,18.9283062 L28.3457506,19.3225824 C28.3457506,19.9336647 28.8391858,20.4330406 29.4577099,20.4330406 C30.0762341,20.4330406 30.5696692,19.9402716 30.5696692,19.3225824 L30.5696692,18.7706567 C31.8067176,18.3632685 32.6949618,17.2067657 32.6949618,15.8400635 C32.7015776,14.1184213 31.3197964,12.7385055 29.6156743,12.7385055 Z" id="Shape" fill="#2876C0"></path>
                                                <path d="M18.5945038,8.39516557 L13.1135878,8.39516557 C12.5016794,8.39516557 12.0016285,7.90239657 12.0016285,7.28470738 C12.0016285,6.67362503 12.4950636,6.17424919 13.1135878,6.17424919 L18.5945038,6.17424919 C19.2064122,6.17424919 19.7064631,6.66701818 19.7064631,7.28470738 C19.7064631,7.90229493 19.2064122,8.39516557 18.5945038,8.39516557 Z" id="Shape" fill="#2876C0"></path>
                                                <path d="M18.5945038,19.861396 L13.1135878,19.861396 C12.5016794,19.861396 12.0016285,19.368627 12.0016285,18.7509378 C12.0016285,18.1398555 12.4950636,17.6404796 13.1135878,17.6404796 L18.5945038,17.6404796 C19.2064122,17.6404796 19.7064631,18.1332486 19.7064631,18.7509378 C19.7064631,19.368627 19.2064122,19.861396 18.5945038,19.861396 Z" id="Shape" fill="#2876C0"></path>
                                                <path d="M22.0554707,14.1250282 L13.1201018,14.1250282 C12.5081934,14.1250282 12.0081425,13.6322592 12.0081425,13.01457 C12.0081425,12.3968808 12.5015776,11.9041118 13.1201018,11.9041118 L22.0620865,11.9041118 C22.6739949,11.9041118 23.1740458,12.3968808 23.1740458,13.01457 C23.1740458,13.6322592 22.6673791,14.1250282 22.0554707,14.1250282 Z" id="Shape" fill="#2876C0"></path>
                                                <path d="M36.6231043,0.0303914873 L3.32936387,0.0303914873 C1.49363868,0.0303914873 0,1.52201382 0,3.3618677 L0,22.7197205 C0,24.5529675 1.49363868,26.0445899 3.32936387,26.0445899 L36.6231043,26.0445899 C38.4588295,26.0445899 39.9524682,24.5529675 39.9524682,22.7197205 L39.9524682,3.35526086 C39.9524682,1.52201382 38.4589313,0.0303914873 36.6231043,0.0303914873 Z M36.6231043,23.8170666 L9.71175573,23.8170666 L9.71175573,21.9311681 C9.71175573,21.3200858 9.21832061,20.8207099 8.59979644,20.8207099 C7.98127226,20.8207099 7.48783715,21.3134789 7.48783715,21.9311681 L7.48783715,23.8170666 L3.32936387,23.8170666 C2.71745547,23.8170666 2.21740458,23.3242976 2.21740458,22.7066084 L2.21740458,3.35526086 C2.21740458,2.74417851 2.71083969,2.24480267 3.32936387,2.24480267 L7.48783715,2.24480267 L7.48783715,4.13070118 C7.48783715,4.74178353 7.98127226,5.24115937 8.59979644,5.24115937 C9.21832061,5.24115937 9.71175573,4.74839038 9.71175573,4.13070118 L9.71175573,2.24480267 L36.6231043,2.24480267 C37.2350127,2.24480267 37.7350636,2.73757167 37.7350636,3.35526086 L37.7350636,22.7066084 L37.7416794,22.7066084 C37.7350636,23.3242976 37.2416285,23.8170666 36.6231043,23.8170666 Z" id="Shape" fill="#2876C0"></path>
                                                <path d="M8.59318066,7.52783928 C7.98127226,7.52783928 7.48122137,8.02060827 7.48122137,8.63829747 L7.48122137,10.7738331 C7.48122137,11.3849154 7.97465649,11.8842913 8.59318066,11.8842913 C9.21170483,11.8842913 9.70513995,11.3915223 9.70513995,10.7738331 L9.70513995,8.63829747 C9.71175573,8.03372032 9.21170483,7.52783928 8.59318066,7.52783928 Z" id="Shape" fill="#2876C0"></path>
                                                <path d="M8.59318066,14.1840832 C7.98127226,14.1840832 7.48122137,14.6768522 7.48122137,15.2945414 L7.48122137,17.430077 C7.48122137,18.0411594 7.97465649,18.5405352 8.59318066,18.5405352 C9.21170483,18.5405352 9.70513995,18.0477662 9.70513995,17.430077 L9.70513995,15.2945414 C9.71175573,14.6769539 9.21170483,14.1840832 8.59318066,14.1840832 Z" id="Shape" fill="#2876C0"></path>
                                            </g>
                                        </g>
                                    </g>
                                </g>
                            </g>
                        </g>
                    </g>
                </g>
            </g>
        </g>
    </g>
</svg>